<?xml version="1.0" encoding="utf-8"?>
<!-- Generator: Adobe Illustrator 16.0.0, SVG Export Plug-In . SVG Version: 6.00 Build 0)  -->
<!DOCTYPE svg PUBLIC "-//W3C//DTD SVG 1.1//EN" "http://www.w3.org/Graphics/SVG/1.1/DTD/svg11.dtd">
<svg version="1.1" id="Layer_1" xmlns="http://www.w3.org/2000/svg" xmlns:xlink="http://www.w3.org/1999/xlink" x="0px" y="0px"
	 width="1224px" height="792px" viewBox="0 0 1224 792" enable-background="new 0 0 1224 792" xml:space="preserve">
<g>
	<g>
		<path fill="#FFFFFF" stroke="#231F20" stroke-width="8.6855" stroke-miterlimit="10" d="M39.875,335.773
			c6.414-6.342,16.546-21.738,27.259-59.074c0,0,12.485-44.513,61.883-41.799c0,0,10.314-0.542,15.743,10.314
			c0,0,4.885,3.8,7.599-14.656c0,0,3.8-18.457,26.057-4.343c0,0,15.199-166.11,165.567-164.481c0,0,88.483-0.542,111.825,99.883
			c0,0,6.515,26.057,4.343,64.055c0,0,0,6.514,9.229-2.714c0,0,19.542-13.028,21.714,10.314c0,0,3.8,8.143,17.371-3.257
			c0,0,43.427-23.885,71.111,30.399c0,0,12.485,23.342,43.428,22.799c0,0,9.229,1.628,0,9.771c0,0-14.658,7.6-17.371,16.286
			c0,0-6.516,31.484-38.529,16.13c-2.878-1.38-17.928-18.843-26.612,12.097c0,0-2.604,4.05-7.601,4.337
			c-1.847,0.105-9.361-1.445-13.146,0.892c-5.563,3.436-13.155,11.538-16.709,30.599c-5.972,32.027-0.543,113.997,46.684,151.995
			c0,0,37.812,29.783-11.941,34.742c-2.836,0.279-77.627,20.086-28.229,74.912c0,0,11.943,14.656-7.6,11.4
			c-19.542-3.258-51.027-5.973-70.57,13.027c0,0-26.057,31.486-54.283,5.971c0,0-21.413-23.342-47.076,3.801
			c0,0-16.98,17.371-57.15,1.627c0,0-15.032-4.766-23.102,4.383c-1.75,1.984-12.726,20.047-19.24,5.391
			c0,0-16.828-99.342-54.284-121.055c0,0-29.313-19-53.498,8.143c0,0-8.929,3.799-5.672-9.229
			c3.257-13.027,50.484-107.482,34.199-159.595c0,0-7.058-34.743-28.527-30.399c0,0-26.843,8.142-29.014-5.429
			c0,0-0.543-23.342-26.057-9.771c0,0-47.234,19.084-37.483-7.157C30.844,344.333,35.566,340.037,39.875,335.773z"/>
		
			<ellipse fill="#231F20" stroke="#FFFFFF" stroke-width="2.1714" stroke-miterlimit="10" cx="373.166" cy="216.653" rx="22.257" ry="43.156"/>
		
			<ellipse fill="#231F20" stroke="#FFFFFF" stroke-width="2.1714" stroke-miterlimit="10" cx="282.49" cy="216.653" rx="22.256" ry="43.156"/>
		<path fill="#231F20" stroke="#FFFFFF" stroke-width="3.5251" stroke-miterlimit="10" d="M350.909,273.081
			c0,11.542-9.186,20.899-20.521,20.899c-11.337,0-20.522-9.357-20.522-20.899c0-11.541,9.186-20.899,20.522-20.899
			C341.723,252.182,350.909,261.54,350.909,273.081z"/>
		<path fill="#32C2F2" d="M270.017,128.564c-6.656,6.908-15.106,9.566-18.877,5.935c-3.768-3.63-1.427-12.174,5.231-19.083
			c6.656-6.909,15.106-9.567,18.875-5.936C279.017,113.111,276.676,121.655,270.017,128.564z"/>
		<path fill="#32C2F2" d="M413.586,114.466c7.618,5.831,11.217,13.924,8.037,18.083c-3.182,4.155-11.935,2.797-19.556-3.036
			c-7.617-5.829-11.215-13.924-8.037-18.079C397.213,107.276,405.966,108.634,413.586,114.466z"/>
		<path fill="#DD5DA2" d="M343.347,144.771c0.367,9.586-3.572,17.52-8.803,17.722c-5.229,0.199-9.768-7.409-10.134-16.999
			c-0.367-9.585,3.573-17.519,8.8-17.72C338.444,127.574,342.98,135.183,343.347,144.771z"/>
		<ellipse fill="#6BBE46" cx="337.138" cy="78.417" rx="44.633" ry="16.994"/>
		<path fill="none" stroke="#231F20" stroke-width="8.6855" stroke-miterlimit="10" d="M39.875,335.261
			c6.414-6.343,16.546-21.738,27.259-59.075c0,0,12.485-44.513,61.883-41.798c0,0,10.314-0.543,15.743,10.314
			c0,0,4.885,3.799,7.599-14.657c0,0,3.8-18.457,26.057-4.342c0,0,15.199-166.11,165.567-164.481c0,0,88.483-0.543,111.825,99.882
			c0,0,6.515,26.057,4.343,64.056c0,0,0,6.514,9.229-2.714c0,0,19.542-13.028,21.714,10.314c0,0,3.8,8.143,17.371-3.257
			c0,0,43.427-23.885,71.111,30.399c0,0,12.485,23.342,43.428,22.799c0,0,9.229,1.629,0,9.771c0,0-14.658,7.599-17.371,16.285
			c0,0-6.516,31.485-38.529,16.131c-2.878-1.381-17.928-18.844-26.612,12.098c0,0-2.604,4.05-7.601,4.336
			c-1.847,0.106-9.361-1.444-13.146,0.893c-5.563,3.434-13.155,11.537-16.709,30.598c-5.972,32.027-0.543,113.997,46.684,151.997
			c0,0,37.812,29.783-11.941,34.74c-2.836,0.279-77.627,20.086-28.229,74.912c0,0,11.943,14.656-7.6,11.4
			c-19.542-3.258-51.027-5.971-70.57,13.027c0,0-26.057,31.486-54.283,5.973c0,0-21.413-23.344-47.076,3.799
			c0,0-16.98,17.371-57.15,1.629c0,0-15.032-4.768-23.102,4.381c-1.75,1.986-12.726,20.047-19.24,5.391
			c0,0-16.828-99.34-54.284-121.055c0,0-29.313-19-53.498,8.145c0,0-8.929,3.799-5.672-9.229
			c3.257-13.029,50.484-107.484,34.199-159.597c0,0-7.058-34.741-28.527-30.399c0,0-26.843,8.143-29.014-5.429
			c0,0-0.543-23.342-26.057-9.771c0,0-47.234,19.084-37.483-7.157C30.844,343.82,35.566,339.523,39.875,335.261z"/>
		<path fill="#7554A3" d="M358.379,101.723c1.115,11.213-2.935,20.797-9.054,21.408c-6.113,0.606-11.978-7.989-13.097-19.204
			c-1.116-11.21,2.937-20.795,9.055-21.405C351.401,81.914,357.263,90.509,358.379,101.723z"/>
		<path fill="#7554A3" d="M377.107,93.317c4.756,8.333,4.64,17.352-0.263,20.153c-4.897,2.793-12.725-1.694-17.483-10.027
			c-4.754-8.331-4.637-17.352,0.266-20.151C364.524,80.497,372.354,84.983,377.107,93.317z"/>
		
			<ellipse transform="matrix(0.6719 -0.7407 0.7407 0.6719 61.1292 314.2099)" fill="#7554A3" cx="385.191" cy="88.113" rx="10.526" ry="17.373"/>
		<path fill="#7554A3" d="M336.044,104.494c-3.336,10.312-10.601,17.196-16.228,15.376c-5.622-1.822-7.477-11.656-4.14-21.971
			c3.338-10.309,10.601-17.195,16.226-15.375C337.532,84.346,339.384,94.181,336.044,104.494z"/>
		<path fill="#7554A3" d="M315.871,100.832c-5.488,8.731-13.796,13.381-18.561,10.389c-4.762-2.997-4.169-12.5,1.317-21.23
			c5.486-8.728,13.796-13.38,18.559-10.388C321.95,82.6,321.36,92.102,315.871,100.832z"/>
		<path fill="#7554A3" d="M298.488,91.726c-7.44,6.058-16.148,7.679-19.455,3.622c-3.301-4.059,0.051-12.257,7.492-18.317
			c7.436-6.056,16.145-7.679,19.451-3.622C309.28,77.469,305.93,85.668,298.488,91.726z"/>
		<g>
			<path fill="#F89A2C" d="M199.884,540.457c-4.506,4.674-10.225,6.475-12.775,4.016c-2.553-2.461-0.967-8.244,3.538-12.918
				c4.506-4.678,10.228-6.477,12.776-4.021C205.976,529.994,204.393,535.777,199.884,540.457z"/>
			<path fill="#F89A2C" d="M222.626,520.045c-4.508,4.678-10.224,6.475-12.778,4.016c-2.549-2.455-0.965-8.24,3.542-12.918
				c4.506-4.678,10.227-6.475,12.774-4.016C228.716,509.586,227.134,515.367,222.626,520.045z"/>
			<path fill="#F89A2C" d="M216.892,537.674c-5.637-3.223-8.785-8.328-7.025-11.404c1.755-3.074,7.752-2.955,13.389,0.268
				c5.641,3.225,8.783,8.33,7.028,11.404C228.524,541.021,222.529,540.896,216.892,537.674z"/>
			<path fill="#F89A2C" d="M204.6,542.539c-2.591-5.953-2.061-11.926,1.185-13.342c3.25-1.418,7.984,2.264,10.577,8.219
				c2.594,5.949,2.065,11.926-1.183,13.342C211.933,552.17,207.198,548.492,204.6,542.539z"/>
			<path fill="#F89A2C" d="M196.788,515.109c5.361,3.664,8.088,9.002,6.088,11.928c-1.997,2.928-7.966,2.33-13.329-1.34
				c-5.358-3.664-8.085-9.002-6.085-11.93C185.458,510.842,191.426,511.443,196.788,515.109z"/>
			<path fill="#F89A2C" d="M210.372,513.281c0.817,6.441-1.37,12.021-4.887,12.467c-3.511,0.445-7.023-4.414-7.837-10.861
				c-0.816-6.436,1.368-12.021,4.881-12.467C206.044,501.975,209.553,506.834,210.372,513.281z"/>
			<path fill="#F26322" d="M213.958,526.436c0,4.119-3.338,7.451-7.453,7.451c-4.116,0-7.449-3.332-7.449-7.451
				c0-4.113,3.333-7.447,7.449-7.447C210.62,518.988,213.958,522.322,213.958,526.436z"/>
		</g>
		<g>
			<path fill="#F89A2C" d="M249.522,619.195c-4.504,4.676-10.226,6.475-12.775,4.016c-2.554-2.455-0.968-8.242,3.539-12.918
				c4.505-4.674,10.224-6.473,12.775-4.018C255.615,608.736,254.03,614.518,249.522,619.195z"/>
			<path fill="#F89A2C" d="M272.265,598.787c-4.507,4.674-10.226,6.477-12.778,4.016c-2.549-2.461-0.965-8.24,3.54-12.918
				c4.507-4.678,10.226-6.477,12.774-4.02C278.355,588.324,276.773,594.109,272.265,598.787z"/>
			<path fill="#F89A2C" d="M266.529,616.412c-5.636-3.223-8.783-8.33-7.023-11.404c1.756-3.074,7.752-2.951,13.389,0.268
				c5.64,3.227,8.782,8.33,7.025,11.408C278.162,619.758,272.167,619.635,266.529,616.412z"/>
			<path fill="#F89A2C" d="M254.24,621.277c-2.593-5.955-2.065-11.926,1.184-13.344c3.248-1.416,7.981,2.266,10.577,8.221
				c2.593,5.949,2.065,11.924-1.184,13.342C261.572,630.906,256.836,627.23,254.24,621.277z"/>
			<path fill="#F89A2C" d="M246.427,593.85c5.36,3.664,8.086,9.004,6.088,11.932c-1.999,2.922-7.968,2.322-13.328-1.342
				s-8.087-9.008-6.088-11.93C235.096,589.584,241.064,590.182,246.427,593.85z"/>
			
				<ellipse transform="matrix(0.9921 -0.1257 0.1257 0.9921 -72.4788 36.5695)" fill="#F89A2C" cx="253.647" cy="592.823" rx="6.412" ry="11.756"/>
			<path fill="#F26322" d="M263.597,605.174c0,4.117-3.338,7.451-7.454,7.451c-4.113,0-7.449-3.334-7.449-7.451
				c0-4.113,3.335-7.447,7.449-7.447C260.259,597.727,263.597,601.061,263.597,605.174z"/>
		</g>
		<g>
			<path fill="#F89A2C" d="M294.411,559.303c-4.506,4.678-10.227,6.477-12.779,4.018c-2.549-2.461-0.965-8.242,3.543-12.92
				c4.505-4.672,10.223-6.471,12.775-4.016C300.501,548.846,298.915,554.625,294.411,559.303z"/>
			<path fill="#F89A2C" d="M317.151,538.896c-4.506,4.674-10.225,6.477-12.778,4.012c-2.549-2.457-0.965-8.236,3.542-12.914
				c4.505-4.678,10.225-6.477,12.775-4.02C323.241,528.434,321.658,534.219,317.151,538.896z"/>
			<path fill="#F89A2C" d="M311.416,556.521c-5.639-3.223-8.783-8.33-7.024-11.404c1.756-3.074,7.752-2.951,13.389,0.268
				c5.641,3.227,8.785,8.33,7.024,11.408C323.048,559.867,317.053,559.744,311.416,556.521z"/>
			<path fill="#F89A2C" d="M299.127,561.385c-2.593-5.953-2.066-11.924,1.183-13.342c3.247-1.416,7.984,2.266,10.577,8.221
				c2.595,5.949,2.063,11.924-1.183,13.342C306.456,571.016,301.723,567.34,299.127,561.385z"/>
			<path fill="#F89A2C" d="M291.313,533.959c5.36,3.664,8.087,9.004,6.088,11.93c-1.998,2.922-7.964,2.324-13.327-1.34
				c-5.36-3.668-8.087-9.008-6.088-11.93C279.986,529.693,285.95,530.291,291.313,533.959z"/>
			<path fill="#F89A2C" d="M304.895,532.127c0.816,6.443-1.369,12.023-4.884,12.469c-3.516,0.445-7.025-4.414-7.842-10.857
				c-0.816-6.447,1.37-12.023,4.884-12.473C300.569,520.82,304.078,525.68,304.895,532.127z"/>
			<circle fill="#F26322" cx="301.03" cy="545.283" r="7.451"/>
		</g>
		<g>
			<path fill="#F89A2C" d="M373.699,611.021c-4.507,4.678-10.229,6.48-12.781,4.02c-2.548-2.459-0.965-8.244,3.543-12.922
				c4.506-4.674,10.223-6.471,12.777-4.016C379.788,600.564,378.202,606.348,373.699,611.021z"/>
			<path fill="#F89A2C" d="M396.438,590.615c-4.507,4.676-10.225,6.475-12.778,4.016c-2.549-2.455-0.964-8.24,3.541-12.918
				c4.506-4.678,10.226-6.477,12.776-4.018C402.528,580.156,400.944,585.938,396.438,590.615z"/>
			<path fill="#F89A2C" d="M390.702,608.238c-5.639-3.219-8.783-8.322-7.022-11.398c1.756-3.074,7.753-2.955,13.388,0.268
				c5.642,3.223,8.786,8.328,7.025,11.404C402.335,611.586,396.341,611.467,390.702,608.238z"/>
			<path fill="#F89A2C" d="M378.414,613.107c-2.593-5.953-2.065-11.93,1.183-13.346c3.247-1.412,7.984,2.264,10.577,8.219
				c2.596,5.955,2.064,11.93-1.183,13.342C385.743,622.74,381.009,619.062,378.414,613.107z"/>
			<path fill="#F89A2C" d="M370.599,585.678c5.36,3.664,8.088,9.004,6.088,11.93c-1.997,2.926-7.964,2.324-13.326-1.34
				c-5.361-3.664-8.088-9.004-6.088-11.93C359.272,581.41,365.238,582.014,370.599,585.678z"/>
			<path fill="#F89A2C" d="M384.181,583.85c0.816,6.438-1.367,12.023-4.883,12.469s-7.025-4.416-7.842-10.861
				c-0.816-6.441,1.37-12.023,4.884-12.469C379.856,572.543,383.366,577.404,384.181,583.85z"/>
			<path fill="#F26322" d="M387.767,597.006c0,4.117-3.335,7.449-7.449,7.449c-4.117,0-7.45-3.332-7.45-7.449
				c0-4.115,3.333-7.451,7.45-7.451C384.432,589.555,387.767,592.891,387.767,597.006z"/>
		</g>
		<g>
			<path fill="#F89A2C" d="M441.985,610.078c-4.505,4.678-10.227,6.475-12.777,4.016c-2.552-2.457-0.967-8.24,3.541-12.918
				c4.506-4.674,10.226-6.471,12.775-4.016C448.079,599.615,446.492,605.398,441.985,610.078z"/>
			<path fill="#F89A2C" d="M464.728,589.67c-4.509,4.674-10.227,6.475-12.778,4.012c-2.549-2.451-0.968-8.236,3.542-12.914
				c4.505-4.678,10.224-6.477,12.772-4.02C470.818,579.207,469.235,584.992,464.728,589.67z"/>
			<path fill="#F89A2C" d="M458.992,607.295c-5.638-3.223-8.782-8.324-7.025-11.404c1.759-3.074,7.755-2.955,13.392,0.271
				c5.639,3.223,8.783,8.33,7.025,11.404C470.625,610.643,464.627,610.518,458.992,607.295z"/>
			<path fill="#F89A2C" d="M446.702,612.16c-2.593-5.955-2.062-11.926,1.186-13.342c3.247-1.414,7.981,2.264,10.574,8.219
				c2.596,5.953,2.065,11.926-1.18,13.342C454.032,621.791,449.297,618.113,446.702,612.16z"/>
			<path fill="#F89A2C" d="M438.887,584.732c5.361,3.666,8.088,9.004,6.091,11.926c-2,2.928-7.968,2.328-13.329-1.336
				c-5.359-3.664-8.085-9.006-6.088-11.93C427.56,580.467,433.524,581.064,438.887,584.732z"/>
			<path fill="#F89A2C" d="M452.471,582.902c0.817,6.441-1.37,12.025-4.885,12.467c-3.512,0.445-7.024-4.414-7.84-10.855
				c-0.816-6.443,1.369-12.025,4.881-12.473C448.144,571.596,451.655,576.455,452.471,582.902z"/>
			<circle fill="#F26322" cx="448.605" cy="596.061" r="7.452"/>
		</g>
		<g>
			<path fill="#F89A2C" d="M484.719,510.834c-4.504,4.678-10.223,6.479-12.775,4.02c-2.554-2.459-0.968-8.244,3.541-12.918
				c4.504-4.678,10.225-6.477,12.776-4.02C490.814,500.375,489.227,506.16,484.719,510.834z"/>
			<path fill="#F89A2C" d="M507.462,490.426c-4.507,4.678-10.224,6.477-12.777,4.016c-2.55-2.455-0.966-8.238,3.542-12.912
				c4.504-4.678,10.226-6.477,12.774-4.021C513.553,479.967,511.97,485.748,507.462,490.426z"/>
			<path fill="#F89A2C" d="M501.728,508.055c-5.639-3.223-8.783-8.328-7.025-11.402c1.759-3.076,7.753-2.957,13.389,0.266
				c5.641,3.229,8.785,8.33,7.027,11.404C513.359,511.396,507.367,511.279,501.728,508.055z"/>
			<path fill="#F89A2C" d="M489.44,512.92c-2.593-5.955-2.065-11.926,1.182-13.344c3.248-1.414,7.982,2.266,10.578,8.221
				c2.594,5.949,2.064,11.926-1.186,13.338C496.769,522.551,492.033,518.875,489.44,512.92z"/>
			<path fill="#F89A2C" d="M481.625,485.488c5.359,3.67,8.087,9.01,6.087,11.932c-1.996,2.926-7.965,2.328-13.328-1.342
				c-5.361-3.662-8.085-9.004-6.088-11.926C470.296,481.223,476.263,481.826,481.625,485.488z"/>
			<path fill="#F89A2C" d="M495.208,483.662c0.816,6.438-1.37,12.023-4.886,12.469c-3.514,0.445-7.022-4.416-7.839-10.857
				c-0.817-6.447,1.367-12.027,4.883-12.473C490.879,472.355,494.389,477.215,495.208,483.662z"/>
			<path fill="#F26322" d="M498.793,496.816c0,4.119-3.338,7.453-7.451,7.453c-4.116,0-7.449-3.334-7.449-7.453
				c0-4.113,3.333-7.451,7.449-7.451C495.456,489.365,498.793,492.703,498.793,496.816z"/>
		</g>
	</g>
	<g>
		<g>
			<path d="M237.712,685.594c9.859-61.127,28.53-120.213,42.807-180.348c1.116-4.703-6.115-6.697-7.232-1.994
				C259.01,563.387,240.339,622.473,230.48,683.6C229.717,688.33,236.944,690.359,237.712,685.594L237.712,685.594z"/>
		</g>
	</g>
	<g>
		<g>
			<path d="M343.02,661.812c4.702-49.082,6.115-99.141-1.634-147.99c-0.756-4.766-7.982-2.734-7.232,1.994
				c7.635,48.129,5.998,97.65,1.366,145.996C335.059,666.627,342.563,666.582,343.02,661.812L343.02,661.812z"/>
		</g>
	</g>
	<g>
		<g>
			<path d="M498.243,583.939c-9.222-13.854-18.243-27.898-25.002-43.15c-7.127-16.084-10.384-33.412-10.484-50.951
				c-0.027-4.836-7.527-4.838-7.5,0c0.102,17.631,3.312,34.787,9.975,51.125c6.793,16.656,16.604,31.844,26.535,46.762
				C494.432,591.73,500.931,587.979,498.243,583.939L498.243,583.939z"/>
		</g>
	</g>
	<g>
		<g>
			<path d="M183.527,559.818c1.897-17.465,9.066-34.377,16.318-50.199c7.58-16.539,16.339-32.51,25.167-48.404
				c2.351-4.23-4.127-8.012-6.476-3.785c-9.089,16.365-18.025,32.818-25.828,49.844c-7.633,16.654-14.689,34.199-16.682,52.545
				C175.505,564.623,183.011,564.572,183.527,559.818L183.527,559.818z"/>
		</g>
	</g>
	<g>
		<path fill="#F89A2C" d="M175.902,472.324c-4.506,4.674-10.226,6.477-12.775,4.018c-2.554-2.461-0.968-8.246,3.538-12.92
			c4.506-4.676,10.228-6.475,12.776-4.02C181.994,461.861,180.411,467.646,175.902,472.324z"/>
		<path fill="#F89A2C" d="M198.643,451.912c-4.508,4.68-10.224,6.477-12.777,4.016c-2.549-2.455-0.965-8.238,3.541-12.916
			s10.227-6.477,12.774-4.016C204.734,441.455,203.151,447.234,198.643,451.912z"/>
		<path fill="#F89A2C" d="M192.91,469.543c-5.638-3.225-8.784-8.33-7.024-11.404c1.755-3.076,7.752-2.957,13.389,0.268
			c5.641,3.223,8.783,8.33,7.027,11.402C204.542,472.889,198.546,472.766,192.91,469.543z"/>
		<path fill="#F89A2C" d="M180.618,474.406c-2.591-5.953-2.061-11.924,1.186-13.342c3.249-1.416,7.983,2.264,10.576,8.219
			c2.595,5.951,2.066,11.926-1.182,13.344C187.95,484.037,183.215,480.361,180.618,474.406z"/>
		<path fill="#F89A2C" d="M172.805,446.977c5.361,3.664,8.088,9.004,6.088,11.93c-1.996,2.926-7.966,2.328-13.328-1.34
			c-5.358-3.664-8.086-9.004-6.086-11.93C161.476,442.711,167.444,443.312,172.805,446.977z"/>
		<path fill="#F89A2C" d="M186.389,445.148c0.817,6.443-1.369,12.023-4.887,12.469c-3.512,0.445-7.023-4.414-7.838-10.861
			c-0.816-6.438,1.368-12.023,4.881-12.469C182.062,433.842,185.571,438.701,186.389,445.148z"/>
		<circle fill="#F26322" cx="182.524" cy="458.305" r="7.451"/>
	</g>
	<g>
		<path fill="#F89A2C" d="M404.678,540.436c-4.506,4.674-10.226,6.475-12.775,4.016c-2.554-2.461-0.968-8.244,3.538-12.918
			c4.506-4.678,10.228-6.477,12.776-4.021C410.77,529.973,409.187,535.756,404.678,540.436z"/>
		<path fill="#F89A2C" d="M427.419,520.023c-4.508,4.678-10.224,6.475-12.777,4.016c-2.549-2.455-0.965-8.24,3.541-12.918
			s10.227-6.475,12.774-4.016"/>
		<path fill="#F89A2C" d="M421.686,537.652c-5.638-3.223-8.784-8.328-7.024-11.404c1.755-3.074,7.752-2.955,13.389,0.268
			c5.641,3.225,8.783,8.33,7.027,11.404C433.318,541,427.323,540.875,421.686,537.652z"/>
		<path fill="#F89A2C" d="M409.394,542.518c-2.591-5.953-2.061-11.926,1.186-13.342c3.249-1.418,7.983,2.264,10.576,8.219
			c2.595,5.949,2.066,11.926-1.182,13.342C416.726,552.148,411.992,548.471,409.394,542.518z"/>
		<path fill="#F89A2C" d="M401.582,515.088c5.361,3.664,8.088,9.002,6.088,11.928c-1.996,2.928-7.966,2.33-13.328-1.34
			c-5.358-3.664-8.086-9.002-6.086-11.93C390.252,510.82,396.22,511.422,401.582,515.088z"/>
		<path fill="#F89A2C" d="M415.166,513.26c0.817,6.441-1.369,12.021-4.887,12.467c-3.512,0.445-7.023-4.414-7.838-10.861
			c-0.816-6.436,1.368-12.021,4.881-12.467C410.838,501.953,414.347,506.812,415.166,513.26z"/>
		<path fill="#F26322" d="M418.751,526.414c0,4.119-3.338,7.451-7.453,7.451s-7.449-3.332-7.449-7.451
			c0-4.113,3.334-7.447,7.449-7.447S418.751,522.301,418.751,526.414z"/>
	</g>
	<g>
		<g>
			<path d="M440.014,649.812c5.502-46.818-17.706-90.137-17.999-136.492c-0.03-4.836-7.53-4.838-7.5,0
				c0.293,46.348,23.491,89.762,17.999,136.492C431.951,654.611,439.457,654.557,440.014,649.812L440.014,649.812z"/>
		</g>
	</g>
	
		<ellipse transform="matrix(0.9174 -0.3979 0.3979 0.9174 -171.8879 252.0198)" fill="#DD5DA2" cx="521.299" cy="540.175" rx="5.25" ry="10.824"/>
	<ellipse fill="#DD5DA2" cx="317.68" cy="607.633" rx="5.25" ry="10.824"/>
	<ellipse fill="#7554A3" cx="371.286" cy="535.982" rx="5.25" ry="10.824"/>
	
		<ellipse transform="matrix(0.9101 0.4144 -0.4144 0.9101 228.7823 -16.4371)" fill="#6BBE46" cx="152.269" cy="518.988" rx="5.25" ry="10.823"/>
	<ellipse fill="#6BBE46" cx="415.277" cy="629.797" rx="5.25" ry="10.824"/>
	
		<ellipse transform="matrix(0.9174 -0.3979 0.3979 0.9174 -178.3541 226.2846)" fill="#32C2F2" cx="456.057" cy="542.888" rx="5.25" ry="10.824"/>
	
		<ellipse transform="matrix(0.9215 0.3884 -0.3884 0.9215 215.4275 -57.2538)" fill="#32C2F2" cx="249.341" cy="504.27" rx="5.25" ry="10.824"/>
</g>
<g>
	<g>
		<path fill="#F89A2C" d="M611.639,165.581c-6.161,6.397-13.983,8.861-17.475,5.498c-3.494-3.364-1.326-11.277,4.844-17.67
			c6.16-6.398,13.984-8.859,17.474-5.498C619.974,151.274,617.804,159.188,611.639,165.581z"/>
		<path fill="#F89A2C" d="M642.745,137.665c-6.163,6.399-13.982,8.859-17.477,5.493c-3.486-3.358-1.319-11.268,4.846-17.661
			c6.161-6.398,13.985-8.859,17.473-5.5C651.078,123.359,648.911,131.267,642.745,137.665z"/>
		<path fill="#F89A2C" d="M634.901,161.779c-7.712-4.408-12.014-11.392-9.608-15.597c2.407-4.208,10.605-4.044,18.312,0.363
			c7.715,4.417,12.017,11.395,9.612,15.6C650.811,166.35,642.614,166.189,634.901,161.779z"/>
		<path fill="#F89A2C" d="M618.096,168.434c-3.548-8.146-2.827-16.312,1.616-18.252c4.442-1.935,10.918,3.099,14.469,11.244
			c3.548,8.138,2.824,16.312-1.622,18.244C628.119,181.606,621.641,176.579,618.096,168.434z"/>
		<path fill="#F89A2C" d="M607.407,130.912c7.33,5.02,11.06,12.324,8.323,16.32c-2.73,4.001-10.895,3.185-18.23-1.835
			c-7.334-5.009-11.057-12.315-8.326-16.312C591.909,125.077,600.07,125.903,607.407,130.912z"/>
		<path fill="#F89A2C" d="M625.984,128.414c1.116,8.805-1.876,16.446-6.684,17.055c-4.807,0.609-9.604-6.041-10.721-14.851
			c-1.12-8.818,1.869-16.451,6.679-17.06C620.064,112.948,624.865,119.595,625.984,128.414z"/>
		<path fill="#F26322" d="M630.89,146.407c0,5.634-4.565,10.193-10.192,10.193c-5.632,0-10.189-4.56-10.189-10.193
			c0-5.627,4.558-10.192,10.189-10.192C626.324,136.215,630.89,140.78,630.89,146.407z"/>
	</g>
	<g>
		<path fill="#F89A2C" d="M672.614,189.859c-6.16,6.397-13.982,8.861-17.475,5.498c-3.494-3.364-1.324-11.277,4.844-17.67
			c6.161-6.398,13.986-8.859,17.475-5.498C680.949,175.552,678.78,183.466,672.614,189.859z"/>
		<path fill="#F89A2C" d="M703.722,161.944c-6.162,6.399-13.982,8.859-17.478,5.493c-3.485-3.357-1.319-11.269,4.847-17.662
			c6.16-6.398,13.986-8.858,17.472-5.5C712.055,147.639,709.888,155.545,703.722,161.944z"/>
		<path fill="#F89A2C" d="M695.878,186.058c-7.712-4.409-12.014-11.392-9.609-15.597c2.407-4.208,10.606-4.044,18.313,0.363
			c7.716,4.417,12.016,11.395,9.612,15.6C711.787,190.629,703.591,190.468,695.878,186.058z"/>
		<path fill="#F89A2C" d="M679.071,192.712c-3.548-8.146-2.826-16.312,1.616-18.252c4.443-1.934,10.919,3.099,14.469,11.245
			c3.548,8.138,2.824,16.312-1.62,18.244C689.096,205.885,682.617,200.858,679.071,192.712z"/>
		<path fill="#F89A2C" d="M668.383,155.19c7.33,5.021,11.06,12.324,8.325,16.32c-2.731,4.001-10.896,3.185-18.231-1.835
			c-7.333-5.009-11.058-12.315-8.326-16.312C652.885,149.355,661.047,150.182,668.383,155.19z"/>
		<path fill="#F89A2C" d="M686.96,152.692c1.118,8.806-1.874,16.446-6.684,17.055c-4.806,0.61-9.604-6.041-10.721-14.851
			c-1.12-8.819,1.87-16.45,6.679-17.06C681.04,137.228,685.842,143.875,686.96,152.692z"/>
		<path fill="#F26322" d="M691.865,170.686c0,5.634-4.565,10.193-10.191,10.193c-5.632,0-10.189-4.56-10.189-10.193
			c0-5.627,4.558-10.193,10.189-10.193C687.3,160.493,691.865,165.059,691.865,170.686z"/>
	</g>
	<g>
		<path fill="#F89A2C" d="M796.685,172.153c-6.161,6.397-13.983,8.861-17.475,5.498c-3.494-3.364-1.326-11.277,4.844-17.671
			c6.16-6.399,13.984-8.859,17.474-5.499C805.02,157.845,802.85,165.758,796.685,172.153z"/>
		<path fill="#F89A2C" d="M827.791,144.236c-6.163,6.399-13.982,8.859-17.477,5.493c-3.486-3.357-1.319-11.269,4.846-17.661
			c6.161-6.398,13.985-8.859,17.473-5.501C836.124,129.93,833.957,137.837,827.791,144.236z"/>
		<path fill="#F89A2C" d="M819.947,168.351c-7.712-4.409-12.014-11.393-9.608-15.598c2.407-4.207,10.605-4.044,18.312,0.363
			c7.715,4.416,12.017,11.395,9.612,15.601C835.856,172.922,827.66,172.761,819.947,168.351z"/>
		<path fill="#F89A2C" d="M803.142,175.006c-3.548-8.146-2.827-16.313,1.616-18.253c4.442-1.934,10.918,3.099,14.469,11.246
			c3.548,8.138,2.824,16.312-1.622,18.244C813.165,188.179,806.687,183.151,803.142,175.006z"/>
		<path fill="#F89A2C" d="M792.453,137.482c7.33,5.021,11.06,12.325,8.323,16.32c-2.729,4.002-10.894,3.185-18.23-1.835
			c-7.333-5.009-11.057-12.315-8.327-16.312C776.955,131.648,785.117,132.474,792.453,137.482z"/>
		<path fill="#F89A2C" d="M811.03,134.985c1.116,8.806-1.876,16.446-6.684,17.055c-4.807,0.608-9.604-6.041-10.721-14.852
			c-1.12-8.818,1.869-16.45,6.679-17.059C805.11,119.52,809.911,126.167,811.03,134.985z"/>
		<path fill="#F26322" d="M815.936,152.978c0,5.634-4.565,10.194-10.192,10.194c-5.632,0-10.189-4.56-10.189-10.194
			c0-5.627,4.558-10.192,10.189-10.192C811.37,142.786,815.936,147.351,815.936,152.978z"/>
	</g>
	<g>
		<path fill="#F89A2C" d="M854.959,174.745c-6.161,6.397-13.983,8.861-17.475,5.498c-3.495-3.364-1.325-11.277,4.844-17.67
			c6.159-6.397,13.984-8.857,17.475-5.497C863.294,160.438,861.124,168.352,854.959,174.745z"/>
		<path fill="#F89A2C" d="M886.065,146.831c-6.163,6.398-13.982,8.859-17.477,5.493c-3.487-3.357-1.319-11.269,4.846-17.662
			c6.16-6.398,13.985-8.858,17.472-5.5C894.397,132.525,892.231,140.432,886.065,146.831z"/>
		<path fill="#F89A2C" d="M878.223,170.943c-7.713-4.408-12.015-11.391-9.609-15.596c2.406-4.207,10.605-4.044,18.312,0.364
			c7.716,4.414,12.017,11.393,9.613,15.598C894.131,175.515,885.935,175.354,878.223,170.943z"/>
		<path fill="#F89A2C" d="M861.416,177.598c-3.548-8.146-2.826-16.312,1.616-18.251c4.442-1.934,10.918,3.098,14.469,11.244
			c3.548,8.138,2.823,16.312-1.622,18.244C871.438,190.771,864.961,185.744,861.416,177.598z"/>
		<path fill="#F89A2C" d="M850.727,140.077c7.331,5.021,11.061,12.324,8.324,16.32c-2.729,4.002-10.894,3.185-18.229-1.834
			c-7.334-5.01-11.058-12.318-8.327-16.313C835.229,134.243,843.391,135.068,850.727,140.077z"/>
		<path fill="#F89A2C" d="M869.305,137.579c1.116,8.806-1.876,16.447-6.685,17.055c-4.806,0.61-9.604-6.04-10.721-14.851
			c-1.119-8.819,1.87-16.451,6.679-17.061C863.385,122.113,868.185,128.76,869.305,137.579z"/>
		<path fill="#F26322" d="M874.209,155.573c0,5.633-4.565,10.193-10.191,10.193c-5.632,0-10.189-4.56-10.189-10.193
			c0-5.627,4.558-10.192,10.189-10.192C869.644,145.38,874.209,149.946,874.209,155.573z"/>
	</g>
	<g>
		<path fill="#F89A2C" d="M915.935,199.024c-6.161,6.397-13.982,8.861-17.475,5.498c-3.494-3.364-1.325-11.277,4.844-17.67
			c6.161-6.398,13.985-8.859,17.475-5.498C924.27,184.718,922.101,192.631,915.935,199.024z"/>
		<path fill="#F89A2C" d="M947.042,171.108c-6.163,6.399-13.983,8.859-17.477,5.493c-3.486-3.357-1.32-11.268,4.846-17.66
			c6.161-6.398,13.985-8.859,17.472-5.5C955.375,156.804,953.207,164.711,947.042,171.108z"/>
		<path fill="#F89A2C" d="M939.198,195.222c-7.713-4.409-12.015-11.392-9.609-15.597c2.407-4.208,10.606-4.044,18.313,0.364
			c7.715,4.416,12.017,11.394,9.612,15.599C955.107,199.793,946.911,199.632,939.198,195.222z"/>
		<path fill="#F89A2C" d="M922.393,201.877c-3.549-8.146-2.827-16.312,1.615-18.252c4.443-1.934,10.919,3.099,14.469,11.245
			c3.548,8.138,2.824,16.312-1.621,18.244C932.416,215.05,925.937,210.022,922.393,201.877z"/>
		<path fill="#F89A2C" d="M911.703,164.355c7.33,5.021,11.06,12.324,8.324,16.32c-2.73,4.002-10.895,3.185-18.23-1.834
			c-7.334-5.01-11.058-12.316-8.327-16.313C896.205,158.522,904.367,159.347,911.703,164.355z"/>
		<path fill="#F89A2C" d="M930.28,161.858c1.117,8.805-1.875,16.445-6.684,17.054c-4.807,0.61-9.604-6.041-10.721-14.851
			c-1.12-8.817,1.87-16.45,6.679-17.059C924.36,146.394,929.162,153.04,930.28,161.858z"/>
		<path fill="#F26322" d="M935.187,179.851c0,5.634-4.566,10.193-10.192,10.193c-5.632,0-10.189-4.56-10.189-10.193
			c0-5.627,4.558-10.193,10.189-10.193C930.62,169.658,935.187,174.224,935.187,179.851z"/>
	</g>
	<g>
		<path fill="#F89A2C" d="M964.085,159.524c-6.16,6.396-13.982,8.86-17.474,5.496c-3.495-3.363-1.325-11.274,4.842-17.669
			c6.161-6.398,13.986-8.859,17.475-5.498C972.42,145.216,970.251,153.13,964.085,159.524z"/>
		<path fill="#F89A2C" d="M995.192,131.607c-6.163,6.399-13.982,8.859-17.478,5.493c-3.486-3.358-1.319-11.268,4.847-17.661
			c6.16-6.397,13.985-8.858,17.472-5.501C1003.524,117.301,1001.358,125.209,995.192,131.607z"/>
		<path fill="#F89A2C" d="M987.35,155.722c-7.713-4.41-12.015-11.393-9.61-15.598c2.407-4.208,10.605-4.045,18.313,0.363
			c7.715,4.417,12.017,11.394,9.611,15.601C1003.258,160.291,995.062,160.131,987.35,155.722z"/>
		<path fill="#F89A2C" d="M970.542,162.376c-3.548-8.145-2.827-16.312,1.616-18.252c4.442-1.935,10.918,3.099,14.47,11.246
			c3.547,8.136,2.823,16.311-1.622,18.243C980.565,175.549,974.088,170.521,970.542,162.376z"/>
		<path fill="#F89A2C" d="M959.854,124.854c7.331,5.02,11.06,12.324,8.324,16.32c-2.729,4.001-10.894,3.185-18.23-1.835
			c-7.333-5.009-11.057-12.316-8.327-16.312C944.355,119.019,952.518,119.845,959.854,124.854z"/>
		<path fill="#F89A2C" d="M978.432,122.356c1.116,8.806-1.876,16.446-6.685,17.055c-4.806,0.609-9.604-6.041-10.722-14.851
			c-1.118-8.819,1.87-16.451,6.68-17.06C972.511,106.891,977.312,113.538,978.432,122.356z"/>
		<path fill="#F26322" d="M983.336,140.349c0,5.635-4.565,10.194-10.191,10.194c-5.632,0-10.189-4.56-10.189-10.194
			c0-5.626,4.558-10.191,10.189-10.191C978.771,130.157,983.336,134.723,983.336,140.349z"/>
	</g>
	<g>
		<path fill="#F89A2C" d="M1011.832,181.715c-6.161,6.398-13.982,8.861-17.475,5.498c-3.495-3.363-1.325-11.277,4.844-17.672
			c6.16-6.399,13.985-8.859,17.475-5.499C1020.168,167.406,1017.998,175.319,1011.832,181.715z"/>
		<path fill="#F89A2C" d="M1042.939,153.798c-6.163,6.397-13.982,8.858-17.477,5.493c-3.487-3.357-1.32-11.268,4.846-17.662
			c6.16-6.397,13.985-8.858,17.471-5.5C1051.271,139.492,1049.105,147.401,1042.939,153.798z"/>
		<path fill="#F89A2C" d="M1035.096,177.913c-7.713-4.41-12.014-11.394-9.609-15.599c2.406-4.206,10.606-4.043,18.313,0.364
			c7.715,4.416,12.017,11.394,9.611,15.602C1051.005,182.484,1042.809,182.323,1035.096,177.913z"/>
		<path fill="#F89A2C" d="M1018.29,184.568c-3.549-8.146-2.827-16.314,1.615-18.254c4.443-1.935,10.919,3.099,14.469,11.247
			c3.548,8.138,2.823,16.313-1.621,18.244C1028.312,197.741,1021.834,192.713,1018.29,184.568z"/>
		<path fill="#F89A2C" d="M1007.6,147.044c7.332,5.021,11.061,12.325,8.325,16.319c-2.73,4.003-10.895,3.185-18.23-1.835
			c-7.334-5.008-11.058-12.314-8.327-16.311C992.104,141.21,1000.264,142.036,1007.6,147.044z"/>
		<path fill="#F89A2C" d="M1026.178,144.548c1.117,8.805-1.875,16.444-6.685,17.053c-4.806,0.61-9.604-6.039-10.721-14.849
			c-1.119-8.82,1.871-16.452,6.679-17.062C1020.258,129.082,1025.059,135.729,1026.178,144.548z"/>
		<path fill="#F26322" d="M1031.083,162.539c0,5.634-4.566,10.194-10.191,10.194c-5.632,0-10.189-4.56-10.189-10.194
			c0-5.626,4.558-10.191,10.189-10.191C1026.517,152.348,1031.083,156.913,1031.083,162.539z"/>
	</g>
	<g>
		<g id="_x32_Fqp9b.tif">
			<g>
				<path fill="#FFFFFF" d="M710.342,112.55c-0.016,0.042-0.012,0.025-0.005,0.012c0.045-0.084,0.092-0.168,0.138-0.251
					c2.543-4.635,3.916-9.604,4.087-14.91c0.062-1.967-0.066-3.923-0.359-5.87c-0.366-2.447-0.998-4.821-1.909-7.113
					c-2.258-5.687-5.8-10.405-10.506-14.214c-5.968-4.83-12.8-7.506-20.369-8.274c-2.002-0.203-4.012-0.225-6.023-0.115
					c-2.025,0.111-4.031,0.375-6.014,0.797c-2.787,0.593-5.483,1.481-8.076,2.685c-5.211,2.42-9.686,5.829-13.297,10.362
					c-4.352,5.466-6.834,11.702-7.303,18.738c-0.166,2.488-0.034,4.968,0.38,7.427c0.629,3.75,1.873,7.283,3.717,10.594
					c0.037,0.067,0.067,0.138,0.105,0.213c-0.724,0.533-1.381,1.121-1.937,1.813c-2.27,2.839-2.925,6.012-1.793,9.503
					c0.688,2.123,2.026,3.786,3.817,5.063c1.763,1.258,3.731,1.949,5.88,2.064c0.807,0.042,1.617-0.008,2.431-0.015
					c-0.02,0.048-0.06,0.14-0.096,0.234c-0.429,1.101-0.877,2.193-1.28,3.302c-0.731,2.014-0.393,3.859,0.919,5.523
					c1.02,1.292,2.347,2.142,3.863,2.704c1.655,0.611,3.371,0.67,5.104,0.581c0.632-0.033,1.044-0.327,1.263-0.933
					c0.255-0.705,0.325-1.438,0.326-2.175c0.004-1.817-0.268-3.604-0.633-5.38c-0.084-0.408-0.181-0.809-0.034-1.227
					c0.302-0.857,0.908-1.362,1.76-1.537c0.924-0.189,1.737,0.07,2.365,0.806c0.354,0.414,0.572,0.912,0.464,1.462
					c-0.302,1.515-0.561,3.037-0.675,4.579c-0.081,1.073-0.102,2.145,0.117,3.209c0.17,0.826,0.604,1.413,1.41,1.681
					c0.232,0.077,0.461,0.167,0.697,0.223c1.279,0.31,2.578,0.353,3.874,0.174c0.618-0.085,1.229-0.268,1.824-0.464
					c0.643-0.216,1.053-0.703,1.192-1.379c0.106-0.514,0.207-1.04,0.227-1.562c0.078-2.039-0.238-4.04-0.629-6.03
					c-0.069-0.353-0.151-0.695-0.05-1.062c0.263-0.942,1.096-1.616,2.13-1.693c0.996-0.074,1.983,0.495,2.334,1.386
					c0.107,0.273,0.191,0.597,0.153,0.881c-0.189,1.411-0.447,2.812-0.633,4.222c-0.144,1.098-0.142,2.204,0.01,3.308
					c0.145,1.062,0.659,1.78,1.707,2.09c0.894,0.267,1.801,0.387,2.726,0.397c1.092,0.012,2.17-0.088,3.212-0.455
					c0.776-0.272,1.311-0.774,1.45-1.615c0.101-0.613,0.187-1.236,0.196-1.856c0.029-1.834-0.252-3.64-0.604-5.433
					c-0.098-0.497-0.211-0.979-0.002-1.481c0.354-0.849,1.207-1.449,2.165-1.446c0.991,0.006,1.779,0.418,2.209,1.36
					c0.127,0.278,0.203,0.626,0.167,0.925c-0.081,0.682-0.263,1.348-0.375,2.027c-0.229,1.376-0.396,2.76-0.353,4.16
					c0.021,0.649,0.098,1.291,0.324,1.909c0.22,0.593,0.622,0.884,1.244,0.926c1.177,0.079,2.352,0.056,3.511-0.154
					c2.112-0.379,3.951-1.311,5.356-2.99c1.317-1.573,1.794-3.371,1.12-5.372c-0.418-1.239-0.926-2.445-1.394-3.668
					c-0.026-0.069-0.052-0.138-0.078-0.209c0.51,0.034,0.996,0.094,1.483,0.096c0.495,0.005,0.993-0.021,1.486-0.076
					c2.455-0.263,4.633-1.203,6.448-2.913c2.338-2.205,3.479-4.926,3.217-8.194c-0.167-2.087-0.963-3.921-2.308-5.492
					C711.653,113.771,710.992,113.196,710.342,112.55z"/>
			</g>
		</g>
		
			<ellipse fill="#231F20" stroke="#FFFFFF" stroke-width="0.6044" stroke-miterlimit="10" cx="690.544" cy="103.471" rx="6.195" ry="12.012"/>
		
			<ellipse fill="#231F20" stroke="#FFFFFF" stroke-width="0.6044" stroke-miterlimit="10" cx="665.306" cy="103.471" rx="6.194" ry="12.012"/>
		<g id="_x32_Fqp9b.tif_1_">
			<g>
				<path fill="none" stroke="#000000" stroke-width="4.7903" stroke-miterlimit="10" d="M710.341,112.949
					c-0.015,0.042-0.012,0.025-0.004,0.013c0.045-0.084,0.092-0.168,0.138-0.252c2.543-4.635,3.916-9.604,4.086-14.909
					c0.063-1.967-0.065-3.924-0.358-5.872c-0.366-2.446-0.999-4.819-1.909-7.112c-2.258-5.688-5.8-10.405-10.506-14.214
					c-5.968-4.831-12.8-7.506-20.369-8.274c-2.002-0.203-4.012-0.225-6.024-0.115c-2.024,0.11-4.03,0.374-6.013,0.796
					c-2.789,0.593-5.484,1.481-8.076,2.686c-5.212,2.419-9.686,5.828-13.297,10.362c-4.352,5.466-6.834,11.702-7.303,18.738
					c-0.166,2.49-0.034,4.968,0.38,7.427c0.629,3.751,1.872,7.283,3.717,10.594c0.037,0.067,0.067,0.137,0.105,0.212
					c-0.724,0.534-1.382,1.122-1.937,1.815c-2.271,2.838-2.925,6.012-1.793,9.502c0.688,2.124,2.024,3.787,3.817,5.064
					c1.763,1.258,3.729,1.949,5.88,2.063c0.807,0.042,1.617-0.007,2.431-0.015c-0.021,0.049-0.06,0.141-0.096,0.233
					c-0.429,1.101-0.877,2.194-1.28,3.305c-0.733,2.013-0.393,3.859,0.919,5.522c1.02,1.293,2.347,2.143,3.863,2.705
					c1.655,0.612,3.371,0.671,5.104,0.582c0.631-0.034,1.044-0.328,1.263-0.933c0.255-0.704,0.325-1.437,0.326-2.176
					c0.004-1.817-0.268-3.606-0.633-5.381c-0.084-0.407-0.181-0.807-0.034-1.227c0.3-0.856,0.908-1.361,1.759-1.536
					c0.925-0.189,1.737,0.069,2.366,0.804c0.354,0.417,0.572,0.914,0.463,1.464c-0.301,1.515-0.56,3.037-0.674,4.581
					c-0.082,1.072-0.103,2.145,0.115,3.208c0.172,0.825,0.605,1.412,1.412,1.682c0.232,0.077,0.461,0.167,0.697,0.223
					c1.279,0.31,2.578,0.353,3.874,0.175c0.618-0.085,1.229-0.267,1.824-0.464c0.643-0.216,1.053-0.703,1.192-1.378
					c0.106-0.515,0.206-1.041,0.227-1.563c0.077-2.039-0.238-4.041-0.629-6.03c-0.069-0.353-0.151-0.696-0.05-1.064
					c0.263-0.941,1.095-1.615,2.129-1.691c0.997-0.075,1.984,0.495,2.335,1.386c0.107,0.273,0.191,0.598,0.153,0.881
					c-0.189,1.411-0.447,2.811-0.633,4.222c-0.144,1.098-0.142,2.204,0.01,3.308c0.145,1.061,0.659,1.78,1.705,2.09
					c0.896,0.265,1.803,0.387,2.728,0.395c1.092,0.014,2.169-0.086,3.212-0.453c0.775-0.272,1.311-0.775,1.45-1.615
					c0.101-0.613,0.186-1.237,0.196-1.857c0.029-1.834-0.252-3.64-0.604-5.432c-0.098-0.496-0.211-0.981-0.002-1.48
					c0.354-0.849,1.206-1.451,2.165-1.446c0.991,0.005,1.779,0.418,2.209,1.36c0.127,0.278,0.203,0.625,0.167,0.924
					c-0.081,0.683-0.263,1.349-0.375,2.027c-0.231,1.376-0.396,2.76-0.353,4.16c0.021,0.649,0.098,1.291,0.324,1.909
					c0.22,0.592,0.622,0.884,1.244,0.926c1.177,0.079,2.352,0.056,3.511-0.154c2.112-0.38,3.951-1.311,5.356-2.99
					c1.317-1.572,1.794-3.371,1.12-5.372c-0.418-1.24-0.926-2.448-1.394-3.669c-0.026-0.069-0.052-0.139-0.079-0.21
					c0.511,0.036,0.997,0.095,1.483,0.098c0.496,0.003,0.993-0.023,1.485-0.076c2.457-0.264,4.635-1.203,6.448-2.914
					c2.339-2.203,3.48-4.925,3.219-8.193c-0.168-2.087-0.963-3.922-2.308-5.494C711.653,114.171,710.992,113.594,710.341,112.949z"
					/>
			</g>
		</g>
	</g>
	<g>
		<g id="_x32_Fqp9b.tif_3_">
			<g>
				<path fill="#FFFFFF" d="M777.888,127.772c-0.017,0.042-0.012,0.025-0.005,0.011c0.045-0.083,0.092-0.167,0.138-0.25
					c2.543-4.636,3.916-9.604,4.087-14.911c0.062-1.966-0.066-3.923-0.359-5.869c-0.366-2.448-0.998-4.821-1.909-7.113
					c-2.258-5.687-5.8-10.405-10.506-14.214c-5.968-4.83-12.8-7.506-20.369-8.274c-2.002-0.203-4.012-0.225-6.022-0.115
					c-2.026,0.111-4.032,0.375-6.015,0.797c-2.787,0.593-5.483,1.481-8.077,2.685c-5.21,2.42-9.685,5.829-13.296,10.363
					c-4.352,5.465-6.834,11.702-7.303,18.738c-0.166,2.489-0.034,4.968,0.38,7.427c0.629,3.75,1.873,7.283,3.717,10.594
					c0.037,0.067,0.067,0.137,0.105,0.213c-0.724,0.533-1.381,1.122-1.937,1.815c-2.27,2.839-2.925,6.012-1.793,9.503
					c0.688,2.123,2.026,3.786,3.817,5.063c1.763,1.257,3.73,1.948,5.88,2.063c0.807,0.043,1.617-0.007,2.431-0.014
					c-0.02,0.048-0.06,0.14-0.096,0.234c-0.429,1.1-0.877,2.191-1.28,3.301c-0.731,2.015-0.394,3.859,0.919,5.525
					c1.02,1.291,2.347,2.141,3.863,2.704c1.655,0.611,3.371,0.671,5.104,0.581c0.632-0.034,1.044-0.328,1.263-0.933
					c0.255-0.705,0.324-1.438,0.326-2.175c0.004-1.817-0.268-3.604-0.633-5.38c-0.084-0.409-0.181-0.809-0.033-1.227
					c0.301-0.857,0.907-1.362,1.759-1.537c0.924-0.19,1.737,0.069,2.365,0.806c0.354,0.414,0.572,0.912,0.464,1.461
					c-0.302,1.516-0.561,3.037-0.675,4.581c-0.081,1.073-0.102,2.143,0.117,3.209c0.17,0.825,0.604,1.413,1.41,1.682
					c0.231,0.076,0.461,0.165,0.697,0.223c1.279,0.31,2.578,0.352,3.874,0.175c0.618-0.085,1.229-0.269,1.824-0.464
					c0.643-0.216,1.053-0.703,1.192-1.38c0.106-0.512,0.207-1.039,0.227-1.562c0.078-2.038-0.238-4.039-0.629-6.03
					c-0.069-0.352-0.151-0.694-0.05-1.061c0.262-0.942,1.096-1.617,2.13-1.693c0.996-0.073,1.983,0.494,2.334,1.385
					c0.107,0.273,0.191,0.597,0.153,0.882c-0.189,1.41-0.447,2.812-0.633,4.222c-0.144,1.098-0.142,2.203,0.01,3.308
					c0.145,1.062,0.659,1.78,1.707,2.091c0.894,0.266,1.801,0.386,2.726,0.397c1.092,0.012,2.171-0.089,3.212-0.455
					c0.776-0.273,1.311-0.774,1.45-1.615c0.101-0.613,0.187-1.236,0.196-1.856c0.029-1.835-0.252-3.641-0.604-5.433
					c-0.098-0.496-0.211-0.979-0.002-1.482c0.354-0.847,1.207-1.449,2.165-1.445c0.991,0.005,1.779,0.418,2.209,1.36
					c0.127,0.278,0.203,0.625,0.167,0.924c-0.081,0.682-0.263,1.348-0.375,2.028c-0.23,1.376-0.396,2.759-0.353,4.16
					c0.021,0.648,0.098,1.291,0.325,1.909c0.219,0.593,0.621,0.885,1.243,0.926c1.177,0.078,2.352,0.055,3.511-0.154
					c2.111-0.379,3.951-1.312,5.356-2.991c1.317-1.571,1.794-3.37,1.12-5.371c-0.418-1.24-0.926-2.446-1.394-3.668
					c-0.026-0.069-0.052-0.138-0.078-0.209c0.51,0.035,0.996,0.094,1.483,0.097c0.495,0.004,0.993-0.023,1.486-0.076
					c2.455-0.264,4.633-1.204,6.447-2.913c2.339-2.205,3.479-4.927,3.218-8.194c-0.167-2.088-0.963-3.921-2.308-5.493
					C779.199,128.995,778.538,128.418,777.888,127.772z"/>
			</g>
		</g>
		
			<ellipse fill="#231F20" stroke="#FFFFFF" stroke-width="0.6044" stroke-miterlimit="10" cx="758.09" cy="118.693" rx="6.195" ry="12.013"/>
		
			<ellipse fill="#231F20" stroke="#FFFFFF" stroke-width="0.6044" stroke-miterlimit="10" cx="732.852" cy="118.693" rx="6.194" ry="12.013"/>
		<g id="_x32_Fqp9b.tif_2_">
			<g>
				<path fill="none" stroke="#000000" stroke-width="4.7903" stroke-miterlimit="10" d="M777.887,128.172
					c-0.016,0.041-0.012,0.025-0.004,0.011c0.045-0.084,0.092-0.167,0.138-0.252c2.543-4.634,3.916-9.603,4.086-14.909
					c0.063-1.966-0.065-3.924-0.358-5.872c-0.366-2.447-0.999-4.818-1.909-7.111c-2.258-5.688-5.8-10.405-10.506-14.214
					c-5.968-4.831-12.8-7.506-20.369-8.274c-2.002-0.203-4.012-0.225-6.024-0.115c-2.024,0.11-4.03,0.374-6.013,0.796
					c-2.789,0.593-5.484,1.481-8.077,2.686c-5.211,2.419-9.685,5.828-13.296,10.362c-4.352,5.466-6.834,11.702-7.303,18.737
					c-0.166,2.49-0.034,4.969,0.38,7.428c0.629,3.75,1.872,7.283,3.717,10.594c0.037,0.068,0.067,0.138,0.105,0.213
					c-0.724,0.534-1.382,1.122-1.937,1.815c-2.271,2.837-2.925,6.012-1.793,9.501c0.688,2.125,2.024,3.788,3.817,5.065
					c1.763,1.256,3.729,1.948,5.88,2.063c0.807,0.041,1.617-0.007,2.431-0.016c-0.021,0.05-0.06,0.142-0.096,0.234
					c-0.429,1.1-0.877,2.193-1.28,3.303c-0.733,2.015-0.394,3.859,0.919,5.522c1.02,1.293,2.347,2.143,3.863,2.706
					c1.655,0.611,3.371,0.67,5.104,0.581c0.631-0.035,1.044-0.329,1.263-0.933c0.255-0.706,0.324-1.438,0.326-2.175
					c0.004-1.817-0.268-3.607-0.633-5.382c-0.084-0.407-0.181-0.807-0.033-1.227c0.299-0.856,0.907-1.36,1.758-1.534
					c0.925-0.191,1.736,0.069,2.366,0.804c0.354,0.416,0.572,0.915,0.463,1.463c-0.301,1.516-0.56,3.037-0.674,4.581
					c-0.082,1.073-0.103,2.146,0.115,3.209c0.172,0.825,0.605,1.411,1.412,1.682c0.231,0.076,0.461,0.166,0.697,0.223
					c1.279,0.31,2.578,0.351,3.874,0.174c0.618-0.085,1.229-0.267,1.824-0.464c0.643-0.216,1.053-0.703,1.192-1.378
					c0.106-0.515,0.206-1.041,0.227-1.564c0.077-2.038-0.238-4.041-0.629-6.03c-0.069-0.352-0.151-0.696-0.05-1.064
					c0.262-0.941,1.095-1.615,2.129-1.69c0.997-0.076,1.984,0.494,2.335,1.385c0.107,0.273,0.191,0.6,0.153,0.882
					c-0.189,1.411-0.447,2.81-0.633,4.222c-0.144,1.098-0.142,2.203,0.01,3.308c0.145,1.062,0.659,1.78,1.705,2.09
					c0.896,0.264,1.803,0.386,2.728,0.395c1.092,0.014,2.169-0.087,3.212-0.452c0.775-0.273,1.311-0.777,1.45-1.615
					c0.101-0.613,0.186-1.238,0.196-1.858c0.029-1.833-0.252-3.639-0.604-5.43c-0.098-0.497-0.211-0.981-0.002-1.482
					c0.354-0.848,1.206-1.45,2.165-1.445c0.991,0.004,1.779,0.418,2.209,1.36c0.127,0.278,0.203,0.625,0.167,0.923
					c-0.081,0.682-0.263,1.349-0.375,2.028c-0.231,1.376-0.396,2.759-0.353,4.16c0.021,0.648,0.098,1.291,0.325,1.909
					c0.219,0.593,0.621,0.884,1.243,0.926c1.177,0.078,2.352,0.055,3.511-0.154c2.111-0.381,3.951-1.312,5.356-2.991
					c1.317-1.571,1.794-3.37,1.12-5.371c-0.418-1.241-0.926-2.449-1.394-3.668c-0.026-0.069-0.052-0.14-0.079-0.211
					c0.511,0.037,0.997,0.096,1.482,0.099c0.497,0.002,0.994-0.023,1.486-0.076c2.457-0.264,4.635-1.204,6.448-2.915
					c2.339-2.203,3.48-4.925,3.219-8.192c-0.168-2.088-0.963-3.923-2.308-5.495C779.199,129.395,778.538,128.818,777.887,128.172z"
					/>
			</g>
		</g>
	</g>
	<g>
		<g id="_x32_Fqp9b.tif_5_">
			<g>
				<path fill="#FFFFFF" d="M1051.08,123.569c-0.016,0.041-0.011,0.025-0.004,0.011c0.045-0.083,0.092-0.167,0.138-0.25
					c2.543-4.635,3.915-9.604,4.087-14.911c0.062-1.966-0.067-3.924-0.359-5.869c-0.367-2.448-0.999-4.821-1.909-7.113
					c-2.259-5.688-5.801-10.405-10.507-14.214c-5.968-4.831-12.799-7.506-20.368-8.274c-2.002-0.203-4.013-0.225-6.023-0.115
					c-2.026,0.111-4.031,0.375-6.014,0.797c-2.788,0.593-5.483,1.482-8.077,2.685c-5.21,2.42-9.685,5.829-13.296,10.362
					c-4.353,5.466-6.834,11.702-7.303,18.738c-0.167,2.489-0.034,4.967,0.379,7.427c0.63,3.75,1.873,7.283,3.717,10.594
					c0.038,0.067,0.067,0.137,0.105,0.212c-0.724,0.534-1.38,1.122-1.937,1.815c-2.27,2.839-2.924,6.012-1.793,9.503
					c0.688,2.123,2.026,3.785,3.818,5.062c1.762,1.256,3.73,1.948,5.879,2.063c0.807,0.043,1.618-0.007,2.431-0.014
					c-0.02,0.048-0.06,0.14-0.095,0.234c-0.429,1.101-0.878,2.191-1.281,3.301c-0.731,2.015-0.393,3.859,0.919,5.524
					c1.021,1.291,2.347,2.141,3.864,2.704c1.655,0.611,3.371,0.67,5.104,0.581c0.632-0.035,1.045-0.329,1.263-0.933
					c0.255-0.706,0.325-1.438,0.326-2.175c0.005-1.817-0.268-3.604-0.633-5.38c-0.084-0.409-0.181-0.809-0.033-1.227
					c0.301-0.857,0.907-1.362,1.76-1.537c0.923-0.191,1.736,0.069,2.364,0.806c0.354,0.414,0.572,0.912,0.465,1.461
					c-0.303,1.516-0.561,3.037-0.676,4.581c-0.08,1.073-0.101,2.144,0.117,3.209c0.17,0.825,0.604,1.413,1.41,1.682
					c0.232,0.076,0.461,0.166,0.697,0.223c1.28,0.31,2.579,0.351,3.874,0.174c0.618-0.085,1.229-0.269,1.824-0.464
					c0.644-0.216,1.054-0.703,1.192-1.381c0.106-0.512,0.208-1.038,0.228-1.562c0.078-2.038-0.239-4.038-0.63-6.03
					c-0.068-0.352-0.151-0.694-0.049-1.062c0.262-0.942,1.096-1.617,2.129-1.693c0.996-0.074,1.984,0.494,2.334,1.385
					c0.108,0.273,0.192,0.597,0.154,0.882c-0.189,1.411-0.448,2.812-0.633,4.222c-0.144,1.098-0.143,2.203,0.009,3.308
					c0.145,1.062,0.659,1.78,1.707,2.09c0.894,0.267,1.801,0.386,2.726,0.397c1.093,0.012,2.171-0.089,3.213-0.455
					c0.776-0.273,1.311-0.774,1.449-1.615c0.102-0.613,0.188-1.236,0.196-1.856c0.03-1.835-0.251-3.641-0.603-5.433
					c-0.098-0.496-0.212-0.979-0.003-1.481c0.354-0.848,1.207-1.45,2.165-1.445c0.991,0.004,1.779,0.418,2.209,1.36
					c0.128,0.278,0.203,0.625,0.168,0.923c-0.082,0.682-0.264,1.349-0.376,2.028c-0.229,1.376-0.395,2.759-0.353,4.16
					c0.021,0.648,0.098,1.291,0.325,1.909c0.22,0.593,0.621,0.884,1.244,0.926c1.176,0.078,2.351,0.055,3.51-0.154
					c2.112-0.379,3.951-1.312,5.357-2.991c1.317-1.571,1.794-3.37,1.119-5.371c-0.418-1.241-0.926-2.446-1.393-3.668
					c-0.026-0.069-0.052-0.138-0.078-0.209c0.51,0.034,0.995,0.094,1.482,0.096c0.495,0.005,0.993-0.023,1.486-0.076
					c2.456-0.264,4.634-1.204,6.448-2.913c2.339-2.205,3.479-4.927,3.217-8.193c-0.166-2.088-0.962-3.921-2.307-5.492
					C1052.393,124.792,1051.73,124.215,1051.08,123.569z"/>
			</g>
		</g>
		
			<ellipse fill="#231F20" stroke="#FFFFFF" stroke-width="0.6044" stroke-miterlimit="10" cx="1031.283" cy="114.49" rx="6.195" ry="12.013"/>
		
			<ellipse fill="#231F20" stroke="#FFFFFF" stroke-width="0.6044" stroke-miterlimit="10" cx="1006.045" cy="114.49" rx="6.194" ry="12.013"/>
		<g id="_x32_Fqp9b.tif_4_">
			<g>
				<path fill="none" stroke="#000000" stroke-width="4.7903" stroke-miterlimit="10" d="M1051.079,123.968
					c-0.015,0.042-0.011,0.025-0.003,0.012c0.045-0.084,0.092-0.168,0.138-0.253c2.543-4.633,3.915-9.602,4.085-14.909
					c0.063-1.966-0.065-3.923-0.357-5.871c-0.367-2.447-1-4.818-1.909-7.112c-2.259-5.687-5.801-10.405-10.507-14.213
					c-5.968-4.831-12.799-7.506-20.368-8.274c-2.002-0.203-4.013-0.225-6.024-0.115c-2.025,0.11-4.03,0.374-6.013,0.797
					c-2.789,0.593-5.485,1.481-8.077,2.685c-5.211,2.42-9.685,5.829-13.296,10.362c-4.353,5.466-6.834,11.702-7.303,18.737
					c-0.167,2.49-0.034,4.969,0.379,7.428c0.63,3.75,1.872,7.283,3.717,10.593c0.038,0.068,0.067,0.138,0.105,0.214
					c-0.724,0.534-1.382,1.122-1.937,1.815c-2.271,2.837-2.924,6.012-1.793,9.501c0.688,2.125,2.025,3.788,3.818,5.064
					c1.762,1.257,3.729,1.948,5.879,2.063c0.807,0.042,1.618-0.007,2.431-0.016c-0.021,0.051-0.06,0.143-0.095,0.234
					c-0.429,1.101-0.878,2.194-1.281,3.303c-0.732,2.015-0.393,3.859,0.919,5.522c1.021,1.293,2.347,2.144,3.864,2.706
					c1.655,0.611,3.371,0.671,5.104,0.582c0.631-0.035,1.045-0.329,1.263-0.933c0.255-0.705,0.325-1.438,0.326-2.175
					c0.005-1.817-0.268-3.606-0.633-5.382c-0.084-0.406-0.181-0.806-0.033-1.227c0.3-0.857,0.907-1.36,1.759-1.535
					c0.924-0.19,1.736,0.069,2.365,0.804c0.354,0.416,0.572,0.914,0.463,1.463c-0.301,1.516-0.559,3.037-0.674,4.581
					c-0.081,1.073-0.103,2.146,0.116,3.209c0.171,0.825,0.605,1.411,1.411,1.682c0.232,0.076,0.461,0.166,0.697,0.223
					c1.28,0.31,2.579,0.352,3.874,0.175c0.618-0.085,1.229-0.267,1.824-0.464c0.644-0.216,1.054-0.703,1.192-1.378
					c0.106-0.515,0.207-1.041,0.228-1.564c0.077-2.038-0.239-4.041-0.63-6.03c-0.068-0.352-0.151-0.696-0.049-1.063
					c0.262-0.942,1.095-1.615,2.128-1.691c0.997-0.076,1.985,0.494,2.335,1.385c0.108,0.273,0.192,0.6,0.154,0.882
					c-0.189,1.411-0.448,2.81-0.633,4.222c-0.144,1.098-0.143,2.203,0.009,3.308c0.145,1.061,0.659,1.78,1.706,2.09
					c0.895,0.264,1.802,0.386,2.727,0.395c1.093,0.014,2.17-0.087,3.213-0.453c0.775-0.273,1.311-0.776,1.449-1.615
					c0.102-0.613,0.187-1.238,0.196-1.858c0.03-1.833-0.251-3.639-0.603-5.431c-0.098-0.496-0.212-0.981-0.003-1.481
					c0.354-0.848,1.206-1.45,2.165-1.445c0.991,0.005,1.779,0.418,2.209,1.36c0.128,0.278,0.203,0.625,0.168,0.923
					c-0.082,0.682-0.264,1.348-0.376,2.028c-0.23,1.376-0.395,2.759-0.353,4.16c0.021,0.648,0.098,1.291,0.325,1.909
					c0.22,0.592,0.621,0.884,1.244,0.926c1.176,0.078,2.351,0.055,3.51-0.154c2.112-0.381,3.951-1.312,5.357-2.991
					c1.317-1.571,1.794-3.37,1.119-5.371c-0.418-1.241-0.926-2.449-1.393-3.669c-0.026-0.069-0.052-0.14-0.079-0.211
					c0.511,0.037,0.996,0.096,1.482,0.099c0.496,0.002,0.993-0.023,1.486-0.076c2.457-0.264,4.635-1.204,6.448-2.915
					c2.338-2.202,3.479-4.924,3.218-8.191c-0.167-2.088-0.962-3.923-2.307-5.495C1052.393,125.191,1051.73,124.614,1051.079,123.968
					z"/>
			</g>
		</g>
	</g>
	<g>
		<g id="_x32_Fqp9b.tif_7_">
			<g>
				<path fill="#FFFFFF" d="M1120.79,141.376c-0.016,0.041-0.011,0.025-0.004,0.011c0.044-0.083,0.092-0.167,0.138-0.25
					c2.543-4.635,3.915-9.604,4.087-14.91c0.062-1.966-0.067-3.923-0.36-5.869c-0.366-2.448-0.998-4.821-1.908-7.113
					c-2.259-5.687-5.801-10.405-10.507-14.214c-5.968-4.83-12.8-7.506-20.368-8.274c-2.002-0.203-4.013-0.224-6.023-0.115
					c-2.026,0.111-4.031,0.375-6.015,0.797c-2.787,0.593-5.482,1.481-8.076,2.685c-5.21,2.42-9.685,5.829-13.296,10.363
					c-4.353,5.465-6.834,11.702-7.303,18.738c-0.167,2.489-0.035,4.968,0.379,7.427c0.629,3.75,1.873,7.282,3.717,10.595
					c0.038,0.066,0.067,0.135,0.105,0.211c-0.724,0.536-1.381,1.124-1.937,1.817c-2.27,2.839-2.924,6.012-1.793,9.503
					c0.688,2.123,2.026,3.786,3.818,5.063c1.762,1.256,3.73,1.948,5.879,2.062c0.807,0.044,1.617-0.007,2.431-0.014
					c-0.02,0.048-0.06,0.14-0.096,0.234c-0.428,1.1-0.877,2.191-1.28,3.301c-0.731,2.014-0.393,3.859,0.919,5.524
					c1.02,1.291,2.347,2.141,3.864,2.704c1.654,0.611,3.371,0.671,5.104,0.582c0.632-0.035,1.044-0.329,1.263-0.933
					c0.255-0.706,0.325-1.438,0.326-2.176c0.005-1.817-0.268-3.604-0.633-5.38c-0.084-0.409-0.181-0.809-0.033-1.227
					c0.301-0.857,0.907-1.362,1.76-1.537c0.923-0.19,1.736,0.069,2.364,0.807c0.354,0.414,0.572,0.912,0.465,1.461
					c-0.303,1.516-0.561,3.037-0.676,4.581c-0.08,1.073-0.102,2.143,0.117,3.209c0.17,0.825,0.604,1.413,1.41,1.682
					c0.232,0.076,0.461,0.166,0.697,0.223c1.279,0.31,2.579,0.352,3.874,0.175c0.618-0.085,1.229-0.269,1.824-0.464
					c0.644-0.216,1.054-0.703,1.192-1.381c0.106-0.512,0.208-1.038,0.228-1.562c0.078-2.038-0.239-4.039-0.63-6.03
					c-0.068-0.351-0.151-0.693-0.049-1.061c0.262-0.942,1.096-1.617,2.129-1.693c0.996-0.074,1.983,0.494,2.334,1.385
					c0.108,0.273,0.192,0.598,0.154,0.882c-0.189,1.411-0.448,2.812-0.633,4.222c-0.144,1.098-0.143,2.203,0.009,3.308
					c0.145,1.061,0.659,1.78,1.707,2.09c0.894,0.267,1.801,0.386,2.726,0.397c1.092,0.011,2.171-0.09,3.213-0.455
					c0.776-0.273,1.311-0.774,1.449-1.615c0.101-0.613,0.188-1.236,0.196-1.856c0.03-1.835-0.252-3.641-0.603-5.433
					c-0.098-0.496-0.212-0.979-0.003-1.481c0.354-0.848,1.207-1.45,2.165-1.445c0.991,0.004,1.779,0.418,2.209,1.36
					c0.127,0.278,0.203,0.625,0.168,0.923c-0.082,0.682-0.264,1.349-0.376,2.028c-0.229,1.376-0.396,2.759-0.353,4.16
					c0.021,0.648,0.098,1.291,0.325,1.909c0.219,0.593,0.621,0.884,1.244,0.926c1.176,0.078,2.351,0.055,3.51-0.154
					c2.112-0.379,3.951-1.312,5.356-2.991c1.318-1.571,1.795-3.37,1.12-5.371c-0.418-1.241-0.926-2.447-1.393-3.669
					c-0.026-0.069-0.052-0.138-0.078-0.209c0.51,0.035,0.995,0.094,1.482,0.097c0.495,0.004,0.993-0.023,1.486-0.076
					c2.456-0.264,4.634-1.204,6.448-2.913c2.338-2.205,3.479-4.927,3.217-8.194c-0.166-2.088-0.962-3.921-2.308-5.493
					C1122.102,142.601,1121.44,142.024,1120.79,141.376z"/>
			</g>
		</g>
		
			<ellipse fill="#231F20" stroke="#FFFFFF" stroke-width="0.6044" stroke-miterlimit="10" cx="1100.993" cy="132.299" rx="6.195" ry="12.013"/>
		
			<ellipse fill="#231F20" stroke="#FFFFFF" stroke-width="0.6044" stroke-miterlimit="10" cx="1075.754" cy="132.299" rx="6.194" ry="12.013"/>
		<g id="_x32_Fqp9b.tif_6_">
			<g>
				<path fill="none" stroke="#000000" stroke-width="4.7903" stroke-miterlimit="10" d="M1120.789,141.776
					c-0.015,0.042-0.012,0.025-0.003,0.012c0.044-0.083,0.092-0.168,0.138-0.253c2.543-4.633,3.915-9.601,4.085-14.907
					c0.063-1.966-0.065-3.924-0.358-5.872c-0.366-2.446-0.999-4.818-1.908-7.111c-2.259-5.688-5.801-10.405-10.507-14.214
					c-5.968-4.831-12.8-7.506-20.368-8.274c-2.002-0.203-4.013-0.225-6.024-0.115c-2.025,0.11-4.03,0.374-6.014,0.796
					c-2.788,0.593-5.484,1.482-8.076,2.686c-5.211,2.419-9.685,5.829-13.296,10.362c-4.353,5.466-6.834,11.702-7.303,18.737
					c-0.167,2.49-0.035,4.969,0.379,7.428c0.629,3.75,1.872,7.282,3.717,10.592c0.038,0.069,0.067,0.138,0.105,0.214
					c-0.724,0.535-1.382,1.124-1.937,1.817c-2.271,2.837-2.924,6.012-1.793,9.501c0.688,2.125,2.025,3.788,3.818,5.065
					c1.762,1.257,3.729,1.948,5.879,2.063c0.807,0.042,1.617-0.007,2.431-0.016c-0.021,0.05-0.06,0.143-0.096,0.234
					c-0.428,1.1-0.877,2.194-1.28,3.303c-0.732,2.015-0.393,3.859,0.919,5.522c1.02,1.293,2.347,2.143,3.864,2.706
					c1.654,0.611,3.371,0.671,5.104,0.581c0.631-0.034,1.044-0.328,1.263-0.933c0.255-0.705,0.325-1.438,0.326-2.175
					c0.005-1.817-0.268-3.606-0.633-5.382c-0.084-0.407-0.181-0.806-0.033-1.227c0.3-0.857,0.907-1.36,1.759-1.535
					c0.924-0.19,1.736,0.069,2.365,0.804c0.354,0.416,0.572,0.914,0.463,1.463c-0.301,1.516-0.559,3.037-0.674,4.581
					c-0.082,1.073-0.103,2.146,0.116,3.209c0.171,0.825,0.605,1.41,1.411,1.682c0.232,0.076,0.461,0.165,0.697,0.223
					c1.279,0.31,2.579,0.352,3.874,0.175c0.618-0.085,1.229-0.267,1.824-0.464c0.644-0.216,1.054-0.703,1.192-1.378
					c0.106-0.514,0.207-1.041,0.228-1.564c0.077-2.038-0.239-4.041-0.63-6.03c-0.068-0.352-0.151-0.696-0.049-1.063
					c0.262-0.942,1.095-1.615,2.128-1.691c0.997-0.076,1.984,0.494,2.335,1.385c0.108,0.273,0.192,0.6,0.154,0.882
					c-0.189,1.41-0.448,2.809-0.633,4.222c-0.144,1.098-0.143,2.203,0.009,3.308c0.145,1.062,0.659,1.78,1.706,2.09
					c0.895,0.265,1.802,0.386,2.727,0.396c1.092,0.014,2.17-0.087,3.213-0.453c0.774-0.273,1.311-0.776,1.449-1.615
					c0.101-0.614,0.186-1.238,0.196-1.858c0.03-1.833-0.252-3.639-0.603-5.431c-0.098-0.496-0.212-0.981-0.003-1.482
					c0.354-0.848,1.206-1.449,2.165-1.445c0.991,0.005,1.779,0.418,2.209,1.36c0.127,0.278,0.203,0.625,0.168,0.924
					c-0.082,0.682-0.264,1.348-0.376,2.028c-0.23,1.376-0.396,2.759-0.353,4.16c0.021,0.647,0.098,1.291,0.325,1.909
					c0.219,0.593,0.621,0.885,1.244,0.926c1.176,0.078,2.351,0.055,3.51-0.154c2.112-0.381,3.951-1.312,5.356-2.991
					c1.318-1.571,1.795-3.37,1.12-5.371c-0.418-1.24-0.926-2.449-1.393-3.668c-0.026-0.069-0.052-0.14-0.08-0.211
					c0.512,0.037,0.997,0.097,1.483,0.099c0.496,0.002,0.993-0.022,1.486-0.076c2.457-0.264,4.635-1.204,6.448-2.915
					c2.338-2.203,3.479-4.925,3.218-8.191c-0.167-2.088-0.962-3.924-2.308-5.495C1122.102,143,1121.44,142.424,1120.789,141.776z"/>
			</g>
		</g>
	</g>
	<g>
		<path fill="#DD5DA2" d="M704.105,166.855c-3.996,4.15-9.071,5.749-11.336,3.565c-2.266-2.181-0.86-7.314,3.142-11.461
			c3.997-4.15,9.072-5.747,11.336-3.566C709.513,157.575,708.105,162.707,704.105,166.855z"/>
		
			<ellipse transform="matrix(0.7201 0.6939 -0.6939 0.7201 302.0547 -459.1898)" fill="#DD5DA2" cx="720.188" cy="144.799" rx="5.688" ry="10.432"/>
		<path fill="#DD5DA2" d="M719.196,164.389c-5.003-2.861-7.793-7.39-6.233-10.119c1.561-2.729,6.88-2.624,11.88,0.235
			c5.006,2.866,7.795,7.392,6.235,10.12C729.517,167.354,724.199,167.25,719.196,164.389z"/>
		<path fill="#DD5DA2" d="M708.294,168.707c-2.301-5.285-1.833-10.583,1.049-11.842c2.882-1.254,7.083,2.01,9.386,7.295
			c2.302,5.279,1.831,10.581-1.052,11.834C714.796,177.252,710.594,173.99,708.294,168.707z"/>
		<path fill="#DD5DA2" d="M701.359,144.366c4.756,3.255,7.176,7.994,5.401,10.585c-1.771,2.596-7.067,2.066-11.827-1.19
			c-4.758-3.25-7.173-7.99-5.402-10.583C691.307,140.581,696.601,141.116,701.359,144.366z"/>
		<path fill="#DD5DA2" d="M713.412,142.744c0.724,5.713-1.218,10.668-4.337,11.064c-3.117,0.395-6.23-3.919-6.954-9.634
			c-0.727-5.721,1.213-10.671,4.332-11.066C709.571,132.712,712.685,137.024,713.412,142.744z"/>
		<path fill="#7554A3" d="M716.594,154.416c0,3.655-2.963,6.614-6.611,6.614c-3.653,0-6.61-2.959-6.61-6.614
			c0-3.649,2.957-6.611,6.61-6.611C713.631,147.805,716.594,150.767,716.594,154.416z"/>
	</g>
	<g>
		<path fill="#DD5DA2" d="M745.769,191.133c-3.996,4.15-9.07,5.749-11.335,3.565c-2.267-2.181-0.86-7.314,3.141-11.462
			c3.998-4.15,9.073-5.746,11.337-3.566C751.176,181.853,749.77,186.984,745.769,191.133z"/>
		
			<ellipse transform="matrix(0.7201 0.6939 -0.6939 0.7201 330.5433 -481.2913)" fill="#DD5DA2" cx="761.852" cy="169.076" rx="5.689" ry="10.433"/>
		<path fill="#DD5DA2" d="M760.86,188.667c-5.004-2.861-7.794-7.39-6.233-10.119s6.88-2.623,11.879,0.235
			c5.006,2.866,7.796,7.393,6.236,10.121C771.18,191.631,765.863,191.528,760.86,188.667z"/>
		<path fill="#DD5DA2" d="M749.958,192.984c-2.301-5.285-1.834-10.583,1.048-11.842c2.882-1.254,7.084,2.01,9.387,7.296
			c2.302,5.279,1.831,10.581-1.052,11.834C756.46,201.53,752.257,198.268,749.958,192.984z"/>
		<path fill="#DD5DA2" d="M743.023,168.644c4.755,3.255,7.176,7.994,5.4,10.585c-1.771,2.596-7.066,2.066-11.826-1.19
			c-4.758-3.249-7.173-7.989-5.402-10.583C732.97,164.858,738.264,165.393,743.023,168.644z"/>
		<path fill="#DD5DA2" d="M755.076,167.022c0.723,5.713-1.218,10.668-4.338,11.064c-3.117,0.395-6.229-3.919-6.953-9.634
			c-0.728-5.721,1.213-10.672,4.331-11.067S754.349,161.302,755.076,167.022z"/>
		<path fill="#7554A3" d="M758.257,178.694c0,3.655-2.962,6.614-6.61,6.614c-3.654,0-6.61-2.959-6.61-6.614
			c0-3.649,2.956-6.611,6.61-6.611C755.295,172.083,758.257,175.045,758.257,178.694z"/>
	</g>
	<g>
		<path fill="#DD5DA2" d="M970.946,103.642c-3.996,4.149-9.07,5.749-11.336,3.565c-2.266-2.181-0.86-7.314,3.142-11.461
			c3.997-4.15,9.073-5.747,11.337-3.566C976.354,94.361,974.946,99.493,970.946,103.642z"/>
		<path fill="#DD5DA2" d="M991.126,85.532c-3.999,4.151-9.07,5.746-11.337,3.564c-2.263-2.179-0.856-7.311,3.144-11.458
			c3.996-4.15,9.071-5.747,11.334-3.568C996.532,76.252,995.126,81.381,991.126,85.532z"/>
		<path fill="#DD5DA2" d="M986.037,101.175c-5.003-2.861-7.793-7.39-6.233-10.119c1.562-2.729,6.88-2.623,11.88,0.236
			c5.006,2.866,7.796,7.392,6.236,10.12C996.357,104.14,991.041,104.037,986.037,101.175z"/>
		<path fill="#DD5DA2" d="M975.135,105.493c-2.301-5.285-1.833-10.583,1.049-11.842c2.882-1.254,7.083,2.01,9.387,7.296
			c2.302,5.279,1.83,10.581-1.053,11.834C981.637,114.039,977.435,110.776,975.135,105.493z"/>
		<path fill="#DD5DA2" d="M968.201,81.152c4.755,3.255,7.175,7.994,5.4,10.585c-1.771,2.596-7.067,2.066-11.827-1.19
			c-4.757-3.249-7.173-7.989-5.401-10.583C958.147,77.366,963.441,77.901,968.201,81.152z"/>
		<path fill="#DD5DA2" d="M980.253,79.53c0.724,5.713-1.218,10.668-4.337,11.064c-3.117,0.395-6.229-3.919-6.953-9.634
			c-0.728-5.721,1.213-10.671,4.331-11.067C976.412,69.499,979.526,73.811,980.253,79.53z"/>
		<path fill="#7554A3" d="M983.435,91.202c0,3.655-2.962,6.614-6.611,6.614c-3.653,0-6.61-2.959-6.61-6.614
			c0-3.649,2.957-6.611,6.61-6.611C980.473,84.591,983.435,87.553,983.435,91.202z"/>
	</g>
	<g>
		<path fill="#DD5DA2" d="M1121.74,154.954c-3.996,4.151-9.07,5.75-11.335,3.565c-2.267-2.18-0.86-7.314,3.141-11.46
			c3.997-4.151,9.073-5.748,11.337-3.568C1127.147,145.673,1125.741,150.805,1121.74,154.954z"/>
		<path fill="#DD5DA2" d="M1141.92,136.845c-3.998,4.151-9.07,5.745-11.337,3.563c-2.263-2.178-0.856-7.31,3.144-11.458
			c3.996-4.148,9.072-5.745,11.335-3.567C1147.326,127.564,1145.92,132.694,1141.92,136.845z"/>
		<path fill="#DD5DA2" d="M1136.831,152.489c-5.003-2.862-7.793-7.39-6.233-10.119c1.562-2.729,6.881-2.624,11.88,0.234
			c5.006,2.867,7.796,7.393,6.236,10.122C1147.151,155.452,1141.835,155.349,1136.831,152.489z"/>
		<path fill="#DD5DA2" d="M1125.929,156.805c-2.3-5.283-1.833-10.583,1.049-11.842c2.882-1.254,7.084,2.01,9.387,7.296
			c2.302,5.279,1.831,10.581-1.053,11.835C1132.432,165.351,1128.229,162.089,1125.929,156.805z"/>
		<path fill="#DD5DA2" d="M1118.995,132.464c4.755,3.255,7.175,7.994,5.4,10.585c-1.771,2.596-7.067,2.067-11.827-1.19
			c-4.757-3.248-7.173-7.99-5.401-10.583C1108.941,128.679,1114.235,129.214,1118.995,132.464z"/>
		<path fill="#DD5DA2" d="M1131.047,130.843c0.724,5.713-1.217,10.668-4.337,11.065c-3.117,0.395-6.229-3.919-6.953-9.634
			c-0.728-5.722,1.213-10.673,4.331-11.068S1130.32,125.123,1131.047,130.843z"/>
		<path fill="#7554A3" d="M1134.229,142.515c0,3.655-2.962,6.613-6.611,6.613c-3.653,0-6.609-2.958-6.609-6.613
			c0-3.648,2.956-6.611,6.609-6.611C1131.267,135.903,1134.229,138.867,1134.229,142.515z"/>
	</g>
	<g>
		<path fill="#DD5DA2" d="M630.98,111.875c-3.996,4.151-9.07,5.75-11.335,3.565c-2.267-2.18-0.86-7.314,3.141-11.461
			c3.997-4.151,9.073-5.748,11.337-3.567C636.388,102.594,634.98,107.727,630.98,111.875z"/>
		<path fill="#DD5DA2" d="M651.16,93.767c-3.998,4.151-9.07,5.745-11.337,3.562c-2.263-2.178-0.856-7.31,3.144-11.458
			c3.996-4.149,9.072-5.745,11.334-3.567C656.566,84.486,655.16,89.615,651.16,93.767z"/>
		<path fill="#DD5DA2" d="M646.071,109.41c-5.003-2.862-7.793-7.39-6.233-10.119c1.562-2.729,6.881-2.623,11.88,0.234
			c5.006,2.867,7.796,7.392,6.236,10.121C656.392,112.374,651.075,112.27,646.071,109.41z"/>
		<path fill="#DD5DA2" d="M635.169,113.727c-2.3-5.284-1.833-10.583,1.049-11.842c2.882-1.254,7.083,2.01,9.387,7.296
			c2.302,5.279,1.831,10.581-1.053,11.835C641.672,122.272,637.469,119.01,635.169,113.727z"/>
		<path fill="#DD5DA2" d="M628.235,89.386c4.755,3.255,7.175,7.994,5.4,10.585c-1.771,2.596-7.067,2.067-11.827-1.19
			c-4.757-3.248-7.173-7.99-5.401-10.583C618.182,85.6,623.476,86.135,628.235,89.386z"/>
		<path fill="#DD5DA2" d="M640.287,87.764c0.724,5.713-1.217,10.668-4.337,11.066c-3.117,0.395-6.229-3.919-6.953-9.634
			c-0.728-5.723,1.213-10.673,4.331-11.068S639.561,82.044,640.287,87.764z"/>
		<path fill="#7554A3" d="M643.469,99.436c0,3.655-2.962,6.613-6.611,6.613c-3.653,0-6.609-2.958-6.609-6.613
			c0-3.648,2.956-6.611,6.609-6.611C640.507,92.825,643.469,95.788,643.469,99.436z"/>
	</g>
	
		<ellipse transform="matrix(0.7201 0.6939 -0.6939 0.7201 267.2074 -479.9083)" fill="#32C2F2" cx="728.442" cy="91.245" rx="3.585" ry="6.574"/>
	
		<ellipse transform="matrix(0.6079 -0.794 0.794 0.6079 226.1068 640.7866)" fill="#32C2F2" cx="761.851" cy="91.46" rx="3.585" ry="6.574"/>
	
		<ellipse transform="matrix(0.9993 -0.0382 0.0382 0.9993 -3.1462 28.5375)" fill="#6BBE46" cx="745.152" cy="96.593" rx="3.585" ry="6.572"/>
	
		<ellipse transform="matrix(0.7201 0.6939 -0.6939 0.7201 267.2074 -479.9083)" fill="#32C2F2" cx="728.442" cy="91.245" rx="3.585" ry="6.574"/>
	
		<ellipse transform="matrix(0.6079 -0.794 0.794 0.6079 226.1068 640.7866)" fill="#32C2F2" cx="761.851" cy="91.46" rx="3.585" ry="6.574"/>
	
		<ellipse transform="matrix(0.9993 -0.0382 0.0382 0.9993 -3.1462 28.5375)" fill="#6BBE46" cx="745.152" cy="96.593" rx="3.585" ry="6.572"/>
	
		<ellipse transform="matrix(0.7201 0.6938 -0.6938 0.7201 239.4853 -437.6279)" fill="#32C2F2" cx="662.213" cy="78.045" rx="3.585" ry="6.574"/>
	
		<ellipse transform="matrix(0.6079 -0.794 0.794 0.6079 210.6193 583.024)" fill="#32C2F2" cx="695.623" cy="78.26" rx="3.585" ry="6.574"/>
	
		<ellipse transform="matrix(0.9993 -0.0382 0.0382 0.9993 -2.6902 25.9978)" fill="#6BBE46" cx="678.923" cy="83.393" rx="3.585" ry="6.572"/>
	<g>
		
			<ellipse transform="matrix(0.72 0.6939 -0.6939 0.72 342.5358 -671.2955)" fill="#32C2F2" cx="1003.214" cy="88.862" rx="3.585" ry="6.573"/>
		
			<ellipse transform="matrix(0.6078 -0.7941 0.7941 0.6078 335.8226 858.1022)" fill="#32C2F2" cx="1036.623" cy="89.076" rx="3.585" ry="6.574"/>
		
			<ellipse transform="matrix(0.9993 -0.0383 0.0383 0.9993 -2.8583 39.1025)" fill="#6BBE46" cx="1019.924" cy="94.209" rx="3.585" ry="6.573"/>
	</g>
	<g>
		
			<ellipse transform="matrix(0.7201 0.6939 -0.6939 0.7201 374.6367 -713.0577)" fill="#32C2F2" cx="1071.141" cy="107.827" rx="3.585" ry="6.574"/>
		
			<ellipse transform="matrix(0.6078 -0.7941 0.7941 0.6078 347.4033 919.4807)" fill="#32C2F2" cx="1104.551" cy="108.042" rx="3.585" ry="6.573"/>
		
			<ellipse transform="matrix(0.9993 -0.0382 0.0382 0.9993 -3.5295 41.6418)" fill="#6BBE46" cx="1087.851" cy="113.175" rx="3.585" ry="6.572"/>
	</g>
</g>
</svg>
