<?xml version="1.0" encoding="utf-8"?>
<!-- Generator: Adobe Illustrator 16.0.0, SVG Export Plug-In . SVG Version: 6.00 Build 0)  -->
<!DOCTYPE svg PUBLIC "-//W3C//DTD SVG 1.1//EN" "http://www.w3.org/Graphics/SVG/1.1/DTD/svg11.dtd">
<svg version="1.1" id="Layer_1" xmlns="http://www.w3.org/2000/svg" xmlns:xlink="http://www.w3.org/1999/xlink" x="0px" y="0px"
	 width="484px" height="720px" viewBox="0 0 484 720" enable-background="new 0 0 484 720" xml:space="preserve">
<g>
	<path fill="#FFFFFF" d="M27.311,315.765c0,0-29.347-302.502,194.145-296.858c0,0,115.131-18.06,167.052,73.367
		c0,0,12.831,22.216,20.207,77.215c1.343,10.006,59.934,384.441,59.934,384.441s10.158,21.446-20.316,33.862l4.514,32.733
		c0,0,3.387,27.09-36.12,36.119c0,0-49.664,3.387-51.92,11.287c0,0-45.927,68.854-116.649,27.091c0,0-30.087-7.901-47.02,1.129
		c0,0-85.784,42.891-108.357-29.349c0,0-63.494,1.129-66.738-30.475C22.796,604.724,27.311,315.765,27.311,315.765z"/>
	<path fill="#231F20" d="M67.471,251.857c-1.011,29.993,10.707,54.731,26.175,55.251c9.452,0.32,18.106-8.483,23.643-22.21l0,0l0,0
		c1.275-3.146,2.384-6.546,3.299-10.163l4.489-2.707l-3.558-1.396c1.081-5.299,1.768-10.97,1.966-16.886
		c1.011-29.991-10.708-54.73-26.177-55.25C81.843,197.974,68.485,221.863,67.471,251.857"/>
	<path fill="#231F20" d="M258.062,288.533c1.233-3.162,2.304-6.574,3.177-10.203l4.453-2.761l-3.574-1.351
		c1.022-5.314,1.638-10.992,1.766-16.912c0.655-29.998-11.355-54.597-26.831-54.935c-15.474-0.335-28.542,23.713-29.202,53.716
		c-0.651,30.002,11.363,54.598,26.836,54.936C244.134,311.232,252.687,302.327,258.062,288.533L258.062,288.533L258.062,288.533z"/>
	<path fill="#231F20" d="M188.193,348.682c0-16.764-13.343-30.35-29.801-30.35c-16.458,0-29.799,13.586-29.799,30.35
		c0,16.762,13.341,30.348,29.799,30.348c9.065,0,17.18-4.127,22.646-10.631l0.174,0.521l1.44-2.112l2.556-0.014l-1.558-2.011
		C186.524,360.115,188.193,354.598,188.193,348.682z"/>
	<path fill="#F89A2E" d="M427.144,470.863c-3.463,6.049-15.261,5.82-26.359-0.527c-0.384-0.217-0.749-0.454-1.122-0.681l0.082,0.176
		c5.103,11.706,4.065,23.472-2.335,26.25c-6.385,2.784-15.71-4.445-20.816-16.17c-1.851-4.254-2.886-8.511-3.158-12.338
		c-1.538,2.779-3.592,5.601-6.134,8.238c-8.868,9.205-20.118,12.75-25.146,7.907c-5.028-4.839-1.904-16.224,6.972-25.426
		c2.564-2.663,5.32-4.83,8.076-6.48c-3.339-1.037-6.851-2.73-10.247-5.051c-10.552-7.205-15.911-17.724-11.979-23.473
		c3.938-5.765,15.679-4.577,26.237,2.633c0.682,0.469,1.34,0.949,1.979,1.439c-0.109-0.609-0.209-1.231-0.289-1.86
		c-1.613-12.698,2.688-23.678,9.611-24.554c6.916-0.878,13.822,8.691,15.434,21.379c0.136,1.09,0.219,2.158,0.27,3.211
		c1.486-2.511,3.379-5.032,5.67-7.413c8.868-9.207,20.132-12.745,25.145-7.911c5.023,4.834,1.908,16.217-6.967,25.428
		c-3.584,3.724-7.556,6.497-11.355,8.188c3.965,0.626,8.331,2.145,12.599,4.592C424.417,454.774,430.603,464.81,427.144,470.863z
		 M370.271,448.782c0,5.869,4.755,10.629,10.623,10.629c5.872,0,10.629-4.76,10.629-10.629c0-5.865-4.757-10.627-10.629-10.627
		C375.026,438.155,370.271,442.917,370.271,448.782z"/>
	<path fill="#F89A2E" d="M133.244,551.409c-3.463,6.05-15.262,5.82-26.359-0.527c-0.384-0.218-0.75-0.454-1.122-0.681l0.081,0.177
		c5.102,11.704,4.065,23.472-2.335,26.25c-6.384,2.784-15.709-4.443-20.816-16.172c-1.851-4.254-2.886-8.511-3.159-12.336
		c-1.538,2.781-3.591,5.601-6.134,8.236c-8.867,9.206-20.117,12.751-25.143,7.907c-5.029-4.835-1.905-16.223,6.97-25.425
		c2.563-2.663,5.322-4.83,8.077-6.48c-3.34-1.037-6.852-2.729-10.247-5.052c-10.553-7.204-15.912-17.723-11.978-23.472
		c3.936-5.766,15.678-4.577,26.235,2.635c0.681,0.467,1.34,0.947,1.978,1.439c-0.108-0.611-0.207-1.234-0.289-1.863
		c-1.613-12.695,2.688-23.677,9.613-24.553c6.914-0.876,13.822,8.69,15.432,21.38c0.138,1.088,0.218,2.156,0.27,3.212
		c1.486-2.512,3.379-5.034,5.67-7.415c8.869-9.207,20.132-12.744,25.146-7.909c5.023,4.833,1.907,16.216-6.967,25.428
		c-3.585,3.723-7.557,6.496-11.356,8.187c3.964,0.626,8.331,2.145,12.599,4.592C130.517,535.322,136.703,545.356,133.244,551.409z
		 M76.372,529.33c0,5.868,4.754,10.626,10.622,10.626c5.872,0,10.628-4.758,10.628-10.626c0-5.867-4.757-10.63-10.628-10.63
		C81.126,518.7,76.372,523.463,76.372,529.33z"/>
	<path fill="#F89A2E" d="M240.345,647.193c-3.464,6.049-15.263,5.82-26.361-0.527c-0.382-0.217-0.748-0.454-1.121-0.681l0.081,0.176
		c5.103,11.706,4.066,23.472-2.334,26.251c-6.385,2.785-15.711-4.443-20.814-16.171c-1.854-4.254-2.887-8.512-3.161-12.338
		c-1.538,2.782-3.59,5.601-6.132,8.238c-8.866,9.205-20.119,12.75-25.146,7.907c-5.029-4.837-1.906-16.224,6.971-25.426
		c2.563-2.663,5.323-4.83,8.078-6.481c-3.34-1.036-6.852-2.729-10.248-5.05c-10.553-7.205-15.912-17.723-11.98-23.472
		c3.939-5.766,15.681-4.576,26.238,2.635c0.681,0.466,1.339,0.947,1.977,1.438c-0.108-0.609-0.207-1.231-0.288-1.86
		c-1.611-12.699,2.687-23.679,9.611-24.555c6.916-0.878,13.821,8.691,15.436,21.38c0.136,1.09,0.217,2.158,0.268,3.21
		c1.486-2.51,3.38-5.031,5.67-7.413c8.871-9.207,20.133-12.745,25.146-7.911c5.025,4.834,1.907,16.218-6.965,25.43
		c-3.587,3.722-7.558,6.496-11.355,8.187c3.964,0.625,8.329,2.146,12.598,4.592C237.618,631.104,243.804,641.141,240.345,647.193z
		 M183.47,625.114c0,5.867,4.756,10.626,10.624,10.626c5.871,0,10.629-4.759,10.629-10.626s-4.758-10.629-10.629-10.629
		C188.227,614.485,183.47,619.247,183.47,625.114z"/>
	<path fill="#F89A2E" d="M401.832,599.299c-3.461,6.05-15.262,5.82-26.358-0.525c-0.384-0.219-0.748-0.455-1.122-0.682l0.081,0.176
		c5.102,11.705,4.065,23.474-2.333,26.251c-6.387,2.784-15.711-4.444-20.816-16.172c-1.854-4.254-2.886-8.511-3.159-12.336
		c-1.54,2.78-3.592,5.599-6.133,8.236c-8.867,9.206-20.12,12.751-25.146,7.908c-5.027-4.837-1.904-16.226,6.971-25.427
		c2.563-2.664,5.323-4.83,8.078-6.481c-3.34-1.036-6.853-2.729-10.246-5.051c-10.555-7.204-15.913-17.722-11.979-23.472
		c3.936-5.765,15.678-4.575,26.235,2.635c0.683,0.467,1.342,0.948,1.978,1.439c-0.108-0.61-0.206-1.232-0.288-1.862
		c-1.612-12.696,2.688-23.677,9.612-24.553c6.915-0.876,13.822,8.69,15.434,21.378c0.137,1.091,0.217,2.158,0.27,3.212
		c1.484-2.511,3.381-5.033,5.67-7.414c8.868-9.206,20.133-12.745,25.146-7.909c5.024,4.832,1.905,16.216-6.967,25.428
		c-3.585,3.723-7.558,6.496-11.355,8.187c3.962,0.625,8.331,2.146,12.598,4.593C399.105,583.21,405.293,593.246,401.832,599.299z
		 M344.96,577.219c0,5.868,4.756,10.628,10.624,10.628c5.871,0,10.627-4.76,10.627-10.628c0-5.867-4.756-10.628-10.627-10.628
		C349.716,566.591,344.96,571.352,344.96,577.219z"/>
</g>
</svg>
